<svg width="233" height="316" viewBox="0 0 233 316" fill="none" xmlns="http://www.w3.org/2000/svg">
<path opacity="0.3" fill-rule="evenodd" clip-rule="evenodd" d="M150.52 76.6467C186.599 88.0029 211.376 124.731 209.229 168.478C207.22 209.428 176.045 239.528 141.753 255.32C103.886 272.759 58.3502 282.842 35.068 248.684C10.2256 212.236 21.1526 157.672 47.9649 117.719C72.6921 80.8726 113.821 65.0954 150.52 76.6467Z" fill="#FEC091"/>
<path opacity="0.3" fill-rule="evenodd" clip-rule="evenodd" d="M135.661 21.6108C126.275 27.6806 121.947 39.8447 125.758 51.761C129.325 62.9156 140.358 68.7019 151.226 70.2805C163.227 72.0238 176.861 71.1111 180.953 59.7789C185.32 47.6872 178.231 33.4945 167.712 24.6304C158.012 16.4557 145.209 15.4366 135.661 21.6108Z" fill="#FEC091"/>
<path d="M65.4884 186.214L65.7951 189.03L67.8313 190.447L65.4121 190.996L64.0702 193.491L63.7635 190.675L61.7273 189.258L64.1465 188.709L65.4884 186.214Z" fill="#FEC091"/>
<path d="M118.293 217.15L118.6 219.967L120.636 221.383L118.217 221.932L116.875 224.428L116.568 221.611L114.532 220.194L116.951 219.645L118.293 217.15Z" fill="#FEC091"/>
<path d="M109.934 98.8664L112.137 101.654L115.245 101.802L113.041 103.998L113.279 107.543L111.075 104.755L107.968 104.608L110.172 102.412L109.934 98.8664Z" fill="#FEC091"/>
<path d="M127.844 8.19729L127.919 10.6546L129.584 12.018L127.455 12.3292L126.125 14.3972L126.05 11.9398L124.384 10.5765L126.514 10.2653L127.844 8.19729Z" fill="#FEC091"/>
<path d="M76.5381 59.9287L76.6131 62.3861L78.2787 63.7494L76.1489 64.0606L74.8194 66.1286L74.7444 63.6713L73.0788 62.3079L75.2086 61.9967L76.5381 59.9287Z" fill="#FEC091"/>
<path d="M191.393 158.322L191.566 161.871L194.009 163.798L190.939 164.304L189.072 167.327L188.899 163.778L186.456 161.851L189.526 161.346L191.393 158.322Z" fill="#FEC091"/>
<path d="M40.3426 102.103L40.2364 104.093L41.489 105.307L39.7479 105.413L38.5339 106.993L38.64 105.004L37.3874 103.79L39.1285 103.683L40.3426 102.103Z" fill="#FEC091"/>
<g opacity="0.5">
<ellipse cx="110.774" cy="310.864" rx="71.5936" ry="4.36546" fill="#FEC091"/>
</g>
<path d="M68.4856 94.128C68.4856 89.3103 73.239 85.9327 77.7885 87.5176L80.3233 88.4007C83.1358 89.3806 85.0203 92.0327 85.0203 95.0111V115.146C85.0203 118.124 83.1358 120.776 80.3233 121.756L77.7885 122.639C73.239 124.224 68.4856 120.847 68.4856 116.029V94.128Z" fill="#25223A"/>
<path d="M70.0858 96.9634C70.0858 92.3456 74.6666 89.1261 79.0114 90.6903C81.6567 91.6426 83.4203 94.1519 83.4203 96.9634V112.66C83.4203 115.472 81.6567 117.981 79.0114 118.934C74.6666 120.498 70.0858 117.278 70.0858 112.66V96.9634Z" fill="#FFFCF2"/>
<path d="M72.7526 100.102C72.7526 97.332 75.5013 95.4007 78.108 96.3391C79.695 96.9104 80.7533 98.416 80.7533 100.103V109.521C80.7533 111.208 79.695 112.714 78.108 113.285C75.5013 114.223 72.7526 112.292 72.7526 109.522V100.102Z" fill="#FEC091"/>
<path d="M81.1145 272.865L83.4832 260.18C76.342 260.692 71.8624 258.779 70.5152 257.759L69.4906 263.245L55.2255 285.963C54.9289 286.435 54.7241 286.959 54.6218 287.507L54.4536 288.408C54.3924 288.735 54.4135 289.073 54.5148 289.39C54.9094 290.624 56.3513 291.169 57.4635 290.504L76.9484 278.849C79.1306 277.543 80.6477 275.364 81.1145 272.865Z" fill="#25223A"/>
<path d="M83.5211 259.978L85.5644 249.037L72.5964 246.615L70.5531 257.557C74.3741 260.451 80.7905 260.377 83.5211 259.978Z" fill="#E87F0F"/>
<path d="M71.1957 253.937L84.2965 256.384L83.4228 260.312C77.1224 261.06 72.11 258.921 70.4574 257.89L71.1957 253.937Z" fill="white"/>
<path d="M40.162 220.33L48.1105 212.167C41.8828 208.635 39.2143 204.56 38.6585 202.964L34.765 206.963L11.6146 210.354C10.7804 210.476 10.0096 210.869 9.42147 211.473L9.18602 211.715C8.89759 212.011 8.68718 212.375 8.57367 212.772C8.20408 214.067 8.92662 215.421 10.2076 215.835L31.078 222.583C34.2879 223.62 37.8086 222.747 40.162 220.33Z" fill="#25223A"/>
<path d="M48.2543 212.019L56.0193 204.044L46.5672 194.841L38.8023 202.816C40.3787 207.343 45.7605 210.838 48.2543 212.019Z" fill="#E87F0F"/>
<path d="M41.3427 200.16L50.8915 209.457L47.9874 212.242C42.3282 209.373 39.3417 204.815 38.5373 203.041L41.3427 200.16Z" fill="white"/>
<path d="M71.5391 239.22L97.8195 244.454L103.706 222.188C105.653 214.826 110.66 208.65 117.462 205.224L151.635 188.01L111.433 181.539L94.9526 190.261C88.7566 193.54 84.1048 199.132 82.008 205.821L71.5391 239.22Z" fill="#FF5B59"/>
<path d="M150.531 188.495L109.304 182.721L97.4757 188.872L137.891 194.904L150.531 188.495Z" fill="#FF2E2C"/>
<rect width="26.9678" height="2.36559" rx="1.1828" transform="matrix(-0.980737 -0.195333 -0.195333 0.980737 98.2218 243.303)" fill="#FF2E2C"/>
<rect width="27.6212" height="7.42062" rx="1.77404" transform="matrix(-0.980737 -0.195333 -0.195333 0.980737 98.212 244.293)" fill="#FF5B59"/>
<path d="M48.7898 188.173L68.3491 206.489L84.7473 191.018C90.4904 185.599 98.3434 183.011 106.183 183.953L149.554 189.163L120.422 161.903L94.9756 159.336C87.7132 158.604 80.4687 160.887 74.9382 165.65L48.7898 188.173Z" fill="#FF5B59"/>
<path d="M148.712 189.023L117.814 161.083C115.135 162.359 114.595 165.939 116.78 167.948L138.616 188.019L148.712 189.023Z" fill="#FF2E2C"/>
<rect width="26.9678" height="2.36559" rx="1.1828" transform="matrix(-0.729914 -0.683539 -0.683539 0.729914 69.2986 205.725)" fill="#FF2E2C"/>
<rect width="27.6212" height="7.42062" rx="1.77404" transform="matrix(-0.729914 -0.683539 -0.683539 0.729914 68.7676 206.56)" fill="#FF5B59"/>
<path d="M172.14 176.513L171.168 174.881L166.215 174.503L165.007 180.407C164.619 182.299 164.86 184.266 165.693 186.009L166.404 187.497C166.861 188.454 167.795 189.094 168.852 189.175C170.225 189.28 171.488 188.426 171.904 187.115L172.975 183.731C173.74 181.316 173.436 178.689 172.14 176.513Z" fill="#E87F0F"/>
<path d="M166.527 182.897L172.31 181.156C172.992 180.95 173.626 181.592 173.412 182.271L171.793 187.421C171.429 188.578 170.372 189.377 169.16 189.411C168.004 189.444 166.943 188.774 166.476 187.716L165.415 185.312C164.985 184.337 165.506 183.205 166.527 182.897Z" fill="#C86709"/>
<path d="M175.872 129.766C168.49 119.227 160.954 109.957 154.141 110.72C151.921 110.969 151.39 113.632 151.911 115.804C152.098 116.586 152.22 117.341 152.28 118.02C152.422 119.615 152.667 121.384 153.604 122.682L166.093 139.974C167.354 141.72 167.937 143.864 167.733 146.008L165.109 173.583C165.022 174.494 165.709 175.295 166.623 175.349C170.801 175.595 174.476 172.61 175.091 168.47L177.176 154.445L178.823 142.081C179.4 137.75 178.378 133.344 175.872 129.766Z" fill="#E87F0F"/>
<path d="M165.188 169.662L165.619 166.37L175.148 169.538L174.828 170.941L165.188 169.662Z" fill="white"/>
<path d="M118.389 156.21L148.91 112.401L119.996 165.714C116.96 163.513 116.246 159.287 118.389 156.21Z" fill="white"/>
<path d="M155.262 179.794C165.518 149.491 168.83 126.673 166.711 114.675C166.306 112.381 163.908 111.377 161.585 111.216C160.128 111.115 158.924 110.656 157.947 109.952C156.316 108.778 154.353 107.692 152.654 108.764C142.793 114.985 130.405 138.592 120.935 157.492C119.098 161.159 120.029 165.606 123.171 168.241L141.437 183.555C146.128 187.488 153.3 185.592 155.262 179.794Z" fill="#FF992D"/>
<path d="M155.592 179.476L161.593 158.992C148.894 193.709 141.431 178.912 134.348 177.616L141.231 183.652C146.105 187.926 153.769 185.698 155.592 179.476Z" fill="#E87F0F"/>
<path d="M99.5222 111.287L101.227 113.325L99.7805 118.741L97.8332 118.477C94.008 117.956 91.9797 113.676 93.9991 110.386C92.8788 110.262 91.2982 110.034 89.8248 109.72C87.3776 109.198 87.889 107.956 90.3901 108.032L92.9869 108.111C95.5189 108.188 97.8972 109.344 99.5222 111.287Z" fill="#E87F0F"/>
<path d="M90.3902 108.033L95.807 108.197C96.5331 108.219 97.2013 108.599 97.5919 109.211L93.5542 116.013C92.2723 116.467 91.1323 115.057 91.8436 113.898L93.9992 110.386C92.8789 110.263 91.2983 110.035 89.8249 109.72C87.3777 109.199 87.8891 107.957 90.3902 108.033Z" fill="#C86709"/>
<path d="M143.356 131.964C155.162 126.847 165.756 121.325 166.375 114.497C166.576 112.272 164.074 111.218 161.842 111.292C161.038 111.319 160.274 111.286 159.597 111.209C158.006 111.028 156.223 110.913 154.764 111.571L135.318 120.336C133.354 121.221 131.136 121.361 129.077 120.731L102.59 112.627C101.715 112.359 100.792 112.871 100.556 113.756C99.4761 117.8 101.663 121.999 105.595 123.432L118.917 128.289L130.699 132.384C134.826 133.818 139.347 133.701 143.356 131.964Z" fill="#E87F0F"/>
<path d="M106.415 113.492L109.554 114.575L104.538 123.274L103.228 122.679L106.415 113.492Z" fill="white"/>
<path fill-rule="evenodd" clip-rule="evenodd" d="M174.704 76.1673C171.59 77.2041 168.289 74.934 165.11 75.7486C160.534 76.9211 155.252 77.8397 152.682 81.8103C149.956 86.0224 150.469 91.6032 151.7 96.4694C152.994 101.58 155.044 107.229 159.724 109.64C164.294 111.994 169.996 110.383 174.704 108.319C178.335 106.727 178.742 101.058 182.457 99.6734C188.864 97.2846 197.433 102.709 202.394 97.9956C206.965 93.6528 205.919 85.4418 203.621 79.565C201.378 73.8276 196.512 68.0433 190.404 67.3257C184.292 66.6075 180.544 74.2226 174.704 76.1673Z" fill="#25223A"/>
<circle cx="9.50742" cy="9.50742" r="9.50742" transform="matrix(-0.91631 -0.400469 -0.400469 0.91631 177.378 94.5229)" fill="#E87F0F"/>
<path d="M174.007 96.976C175.729 101.375 171.658 111.205 161.475 108.325C164.918 108.147 171.582 105.731 174.007 96.976Z" fill="#C86709"/>
<ellipse cx="77.7255" cy="90.2049" rx="1.06676" ry="0.85199" transform="rotate(17.0787 77.7255 90.2049)" fill="#25223A"/>
<path d="M89.8986 71.4845C90.6042 69.5208 92.7681 68.5009 94.7317 69.2065L102.177 71.8818C104.141 72.5874 105.161 74.7513 104.456 76.7149C104.314 77.1077 103.882 77.3117 103.489 77.1705L90.3542 72.4511C89.9615 72.31 89.7575 71.8772 89.8986 71.4845Z" fill="#FFB362"/>
<path d="M102.592 81.9018C101.887 83.865 99.7234 84.8847 97.7602 84.1793L90.3127 81.5034C88.3495 80.7979 87.3299 78.6346 88.0353 76.6714C88.1763 76.2788 88.609 76.0748 89.0016 76.2159L102.137 80.9354C102.529 81.0765 102.733 81.5092 102.592 81.9018Z" fill="#FFB362"/>
<rect x="88.3689" y="73.6548" width="17.0682" height="2.13352" rx="1.06676" transform="rotate(19.7639 88.3689 73.6548)" fill="#FEC091"/>
<rect x="87.7257" y="72.29" width="19.2017" height="1.06676" rx="0.53338" transform="rotate(19.7639 87.7257 72.29)" fill="#FF992D"/>
<rect x="88.7495" y="71.9124" width="17.4112" height="0.664157" rx="0.332078" transform="rotate(19.7639 88.7495 71.9124)" fill="#26C589"/>
<path d="M47.3355 107.322C47.5114 106.275 48.4735 105.549 49.5279 105.665L52.0497 105.944C53.1915 106.071 53.9924 107.131 53.802 108.264L53.6881 108.941L47.1843 108.221L47.3355 107.322Z" fill="#FF992D"/>
<path d="M45.7676 109.949C45.9096 108.872 46.8854 108.105 47.9654 108.222L52.5927 108.722C53.7049 108.842 54.5022 109.851 54.3619 110.961L52.0623 129.149H43.2357L45.7676 109.949Z" fill="#2AB0AF"/>
<rect x="40.2162" y="128.453" width="14.4013" height="0.929114" rx="0.464557" fill="#27A2A1"/>
<rect x="43.4196" y="123.369" width="9.81948" height="1.60588" rx="0.5" transform="rotate(7.26129 43.4196 123.369)" fill="#27A2A1"/>
<rect x="43.8842" y="119.627" width="9.81948" height="1.60588" rx="0.5" transform="rotate(7.26129 43.8842 119.627)" fill="#27A2A1"/>
<rect x="44.3487" y="115.91" width="9.81948" height="1.60588" rx="0.5" transform="rotate(7.26129 44.3487 115.91)" fill="#27A2A1"/>
<rect x="44.8136" y="112.194" width="9.81948" height="1.60588" rx="0.5" transform="rotate(7.26129 44.8136 112.194)" fill="#27A2A1"/>
<rect x="47.3087" y="105.078" width="7.18013" height="1.60588" rx="0.5" transform="rotate(7.26129 47.3087 105.078)" fill="#E87F0F"/>
<path d="M46.0682 63.8461C45.8443 63.3412 46.0721 62.7504 46.577 62.5266L58.7326 57.1372C59.2375 56.9134 59.8283 57.1412 60.0521 57.6461L67.3317 74.0651C67.5556 74.5699 67.3277 75.1607 66.8229 75.3846L54.6673 80.7739C54.1624 80.9978 53.5716 80.7699 53.3478 80.2651L46.0682 63.8461Z" fill="#FF5B59"/>
<rect x="47.7696" y="63.7454" width="11.9763" height="16.3676" rx="1" transform="rotate(-23.9108 47.7696 63.7454)" fill="white"/>
<path d="M54.979 76.0443L58.2932 61.3589" stroke="white"/>
<path d="M58.8205 75.8103L61.1525 64.9945" stroke="white"/>
<path d="M52.0096 71.8769L54.3416 61.0612" stroke="white"/>
<path d="M56.3737 67.9251C54.2873 68.7669 54.093 73.3991 55.912 77.9073L63.4451 74.5637C61.6261 70.0555 58.4602 67.0833 56.3737 67.9251Z" fill="#FF992D"/>
<ellipse cx="55.3494" cy="66.5152" rx="2.24016" ry="2.34974" transform="rotate(-21.9733 55.3494 66.5152)" fill="#25223A"/>
<path d="M55.1727 65.2979C56.0505 64.9438 57.0835 65.3987 57.4663 66.347C57.8489 67.2955 57.4208 68.3397 56.543 68.694C55.6651 69.0482 54.6322 68.5934 54.2495 67.6449C53.8669 66.6965 54.2949 65.6521 55.1727 65.2979Z" fill="#FFB997" stroke="white" stroke-width="0.5"/>
</svg>
