<svg width="219" height="319" viewBox="0 0 219 319" fill="none" xmlns="http://www.w3.org/2000/svg">
<path opacity="0.3" fill-rule="evenodd" clip-rule="evenodd" d="M109.594 52.4087C150.803 52.6688 188.376 82.9717 200.163 129.212C211.197 172.497 188.383 213.833 157.738 241.268C123.897 271.565 79.7137 296.661 44.5212 268.555C6.97027 238.566 0.858271 178.247 15.9707 128.05C29.9079 81.7563 67.6774 52.1442 109.594 52.4087Z" fill="#FEC091"/>
<path opacity="0.3" fill-rule="evenodd" clip-rule="evenodd" d="M39.9353 4.7775C51.9455 6.79427 61.5284 17.0916 62.864 30.6566C64.1143 43.3545 55.5786 53.9076 45.3905 60.1809C34.14 67.1083 20.1087 72.0847 11.1202 62.5178C1.52929 52.3098 2.48972 35.0517 9.18166 21.6422C15.3532 9.2756 27.7187 2.72608 39.9353 4.7775Z" fill="#FEC091"/>
<mask id="mask0_1_832" style="mask-type:alpha" maskUnits="userSpaceOnUse" x="8" y="128" width="195" height="153">
<path fill-rule="evenodd" clip-rule="evenodd" d="M116.98 202.457C158.189 202.717 160.564 170.205 200.163 129.212C211.197 172.496 188.383 213.832 157.738 241.268C123.897 271.564 79.7136 296.66 44.521 268.555C6.97014 238.566 0.858149 178.246 15.9706 128.049C49.2793 163.813 75.0626 202.193 116.98 202.457Z" fill="#EED2B4"/>
</mask>
<g mask="url(#mask0_1_832)">
<path d="M82.1459 37.7548L21.6761 277.955L186.714 283.814L143.697 183.816L91.7068 37.3033C90.0521 32.6402 83.3539 32.9565 82.1459 37.7548Z" fill="#EED2B3"/>
</g>
<path d="M82.9052 24.1371L33.8797 231.223L155.043 209.431L143.697 183.816L92.5333 23.7666C90.9903 18.9399 84.0726 19.2061 82.9052 24.1371Z" fill="#EED2B3"/>
<path d="M89.9577 100.471C77.2525 110.404 70.1909 107.29 64.21 103.164C64.1423 103.117 64.1104 103.034 64.1294 102.953L82.9069 23.8029C84.0758 18.8756 90.9876 18.6085 92.5332 23.4309L115.913 96.375C115.973 96.5617 115.754 96.7168 115.595 96.6018C110.186 92.686 102.345 90.7865 89.9577 100.471Z" fill="#FFFCF2"/>
<mask id="mask1_1_832" style="mask-type:alpha" maskUnits="userSpaceOnUse" x="8" y="128" width="195" height="153">
<path fill-rule="evenodd" clip-rule="evenodd" d="M116.98 202.457C158.189 202.717 160.564 170.205 200.163 129.212C211.197 172.496 188.383 213.832 157.738 241.268C123.897 271.564 79.7136 296.66 44.521 268.555C6.97014 238.566 0.858149 178.246 15.9706 128.049C49.2793 163.813 75.0626 202.193 116.98 202.457Z" fill="#E1C4A3"/>
</mask>
<g mask="url(#mask1_1_832)">
<path d="M152.871 141.884L98.3839 280.465L207.846 281.97C211.372 282.018 213.839 278.5 212.591 275.202L162.201 141.945C160.583 137.666 154.544 137.627 152.871 141.884Z" fill="#E1C4A3"/>
</g>
<path d="M153.139 142.965L131.798 205.654H179.176C182.676 205.654 185.093 202.15 183.85 198.878L162.547 142.8C160.883 138.42 154.649 138.529 153.139 142.965Z" fill="#E1C4A3"/>
<path d="M159.015 189.35C150.669 195.915 143.737 187.943 139.759 185.106C139.689 185.055 139.66 184.968 139.685 184.885L152.801 141.222C154.182 136.626 160.616 136.425 162.28 140.927L178.337 184.37C178.406 184.559 178.177 184.735 178.005 184.63C174.236 182.324 167.016 183.057 159.015 189.35Z" fill="white"/>
<ellipse opacity="0.5" cx="99.7106" cy="313.803" rx="78.0014" ry="4.75619" fill="#FEC091"/>
<path d="M55.3173 181.022L55.6137 183.744L57.5814 185.113L55.2435 185.643L53.9467 188.055L53.6503 185.333L51.6825 183.964L54.0204 183.433L55.3173 181.022Z" fill="#FEC091"/>
<path d="M111.503 241.847L111.799 244.569L113.767 245.938L111.429 246.469L110.132 248.88L109.836 246.158L107.868 244.789L110.206 244.259L111.503 241.847Z" fill="#FEC091"/>
<path d="M76.6358 205.235L76.9322 207.957L78.9 209.326L76.5621 209.856L75.2653 212.268L74.9688 209.546L73.0011 208.177L75.339 207.646L76.6358 205.235Z" fill="#FEC091"/>
<path d="M96.9565 73.3633L99.0862 76.0573L102.089 76.2002L99.9593 78.3221L100.189 81.7485L98.0598 79.0545L95.0566 78.9116L97.1867 76.7897L96.9565 73.3633Z" fill="#FEC091"/>
<path d="M66.2032 87.3834L67.3049 88.777L68.8584 88.8509L67.7566 89.9486L67.8756 91.7211L66.7739 90.3275L65.2204 90.2536L66.3222 89.1559L66.2032 87.3834Z" fill="#FEC091"/>
<path d="M115.578 19.2937L115.651 21.6685L117.26 22.986L115.202 23.2868L113.917 25.2853L113.845 22.9105L112.235 21.593L114.293 21.2922L115.578 19.2937Z" fill="#FEC091"/>
<path d="M181.009 36.7273L181.081 39.1021L182.691 40.4196L180.633 40.7204L179.348 42.7189L179.275 40.3441L177.666 39.0266L179.724 38.7258L181.009 36.7273Z" fill="#FEC091"/>
<path d="M165.371 170.189L165.538 173.619L167.899 175.481L164.932 175.969L163.128 178.891L162.961 175.461L160.6 173.599L163.567 173.111L165.371 170.189Z" fill="#FEC091"/>
<path d="M36.9191 129.751L36.8165 131.674L38.0271 132.847L36.3444 132.95L35.1712 134.477L35.2738 132.554L34.0632 131.381L35.7459 131.278L36.9191 129.751Z" fill="#FEC091"/>
<path d="M60.1639 176.241L60.0613 178.163L61.2719 179.337L59.5892 179.44L58.416 180.967L58.5186 179.044L57.308 177.871L58.9907 177.767L60.1639 176.241Z" fill="#FFFCF2"/>
<path d="M89.2199 216.919L89.1173 218.842L90.3278 220.015L88.6451 220.118L87.4719 221.645L87.5745 219.722L86.3639 218.549L88.0466 218.446L89.2199 216.919Z" fill="#FFFCF2"/>
<path d="M87.7328 126.543L89.8938 127.647L90.657 133.004L84.0671 134.808C82.2041 135.318 80.2256 135.206 78.4321 134.489L76.5163 133.723C75.4431 133.294 74.681 132.324 74.518 131.18C74.3066 129.695 75.1445 128.261 76.5412 127.716L80.4758 126.181C82.8356 125.26 85.4765 125.392 87.7328 126.543Z" fill="#FFB997"/>
<path d="M81.4681 133.437L83.0245 126.704C83.1849 126.01 82.5035 125.42 81.8395 125.677L76.2157 127.858C74.9843 128.336 74.1909 129.542 74.2392 130.862C74.2854 132.121 75.0893 133.227 76.2729 133.659L79.1308 134.703C80.1322 135.069 81.2279 134.475 81.4681 133.437Z" fill="#FCA378"/>
<path d="M138.067 121.231C135.736 108.325 129.215 94.026 123.429 86.6186C122.054 84.8581 119.535 84.8022 117.591 85.9038C117.111 86.1763 116.636 86.4278 116.18 86.6578C114.186 87.6641 113.106 89.8705 113.752 92.0085L120.144 113.152C121.73 118.4 118.224 123.816 112.786 124.516L89.6671 127.493L90.5388 133.014L122.99 135.398C131.798 136.045 139.637 129.922 138.067 121.231Z" fill="#FFB997"/>
<path d="M145.119 269.865L143.459 256.486C135.417 259.47 129.588 259.034 127.679 258.444L128.426 264.462L117.284 290.286C116.971 291.011 116.858 291.806 116.955 292.589L117.021 293.125C117.079 293.592 117.263 294.034 117.552 294.405C118.452 295.56 120.128 295.746 121.259 294.816L141.949 277.81C144.297 275.88 145.494 272.882 145.119 269.865Z" fill="#25223A"/>
<path d="M143.431 256.264L141.942 244.262L126.162 246.22L127.651 258.222C133.066 259.897 140.428 257.614 143.431 256.264Z" fill="#FFB997"/>
<path d="M127.121 254.264L143.063 252.286L143.436 256.643C136.445 259.582 129.923 259.096 127.659 258.6L127.121 254.264Z" fill="white"/>
<path d="M148.895 235.726L144.726 159.742L104.066 160.95L116.841 239.703L148.895 235.726Z" fill="#27A2A1"/>
<path d="M144.641 158.002L103.719 157.762L104.953 167.708L145.069 165.266L144.641 158.002Z" fill="#27A2A1"/>
<rect width="32.506" height="2.57015" rx="1.28508" transform="matrix(-0.992391 0.123125 0.123125 0.992391 148.984 234.199)" fill="#27A2A1"/>
<rect width="33.2935" height="8.06229" rx="1.77404" transform="matrix(-0.992391 0.123125 0.123125 0.992391 149.333 235.221)" fill="#27A2A1"/>
<path d="M120.907 277.035L121.901 262.653C114.237 264.104 109.149 262.597 107.562 261.662L107.143 267.728L94.5277 294.175C94.2877 294.678 94.1447 295.222 94.1062 295.779L94.0322 296.85C94.0072 297.212 94.0723 297.574 94.2219 297.905C94.804 299.191 96.433 299.599 97.553 298.74L117.459 283.459C119.476 281.911 120.732 279.571 120.907 277.035Z" fill="#25223A"/>
<path d="M121.916 262.429L122.753 250.33L108.414 249.339L107.578 261.438C112.077 264.09 119.012 263.203 121.916 262.429Z" fill="#FFB997"/>
<path d="M107.819 257.441L122.304 258.442L121.852 262.803C115.128 264.405 109.434 262.72 107.516 261.812L107.819 257.441Z" fill="white"/>
<path d="M130.448 243.208L140.402 167.582L104.147 161.25L101.323 241.195L130.448 243.208Z" fill="#2AB0AF"/>
<path d="M142.316 154.806L104.321 161.352L103.805 168.809L139.66 173.353L142.316 154.806Z" fill="#27A2A1"/>
<rect width="29.3815" height="2.57732" rx="1.28866" transform="matrix(-0.99762 -0.0689475 -0.0689475 0.99762 130.801 241.72)" fill="#2AB0AF"/>
<rect width="30.0934" height="8.08479" rx="1.77404" transform="matrix(-0.99762 -0.0689475 -0.0689475 0.99762 130.928 242.791)" fill="#2AB0AF"/>
<path d="M144.708 151.431C142.117 114.456 136.334 93.6751 128.824 83.2491C127.463 81.3593 124.825 81.2953 122.772 82.3947C119.702 84.0388 117.015 84.4422 114.655 85.9436C105.804 92.6313 104.082 128.089 102.915 154.293C102.671 159.775 107.401 164.186 112.851 163.546L136.951 160.717C141.601 160.171 145.036 156.102 144.708 151.431Z" fill="#FF992D"/>
<path d="M145.039 151.072L142.607 130.399C145.077 170.599 127.207 155.969 119.943 162.652L137.112 160.935C142.047 160.441 145.618 155.997 145.039 151.072Z" fill="#E87F0F"/>
<path d="M125.987 83.9099C119.33 92.9977 112.564 111.997 142.897 124.588" stroke="#FF6E6C" stroke-width="10" stroke-linecap="round"/>
<path d="M152.939 101.204C156.445 113.322 157.41 124.167 152.939 125.46C150.985 126.025 145.491 128.762 143.188 126.041C140.863 121.973 138.724 112.708 136.751 105.887C135.079 100.107 133.386 94.3203 133.599 90.0116C133.834 85.2858 136.781 84.0052 139.12 83.3287C143.59 82.0356 149.434 89.085 152.939 101.204Z" fill="#FF6E6C"/>
<path d="M150.452 126.332C142.87 127.685 143.111 121.973 139.181 113.193C139.081 112.971 138.784 113.082 138.851 113.316L141.539 122.643C142.452 125.81 145.748 127.649 148.922 126.76L150.452 126.332Z" fill="#FF2E2C"/>
<line x1="51.811" y1="285.583" x2="81.5552" y2="99.6816" stroke="#25223A" stroke-width="3" stroke-linecap="round"/>
<path d="M77.6218 140.133L79.8966 140.977L81.2784 146.208L74.9434 148.768C73.1525 149.491 71.1744 149.61 69.3096 149.107L67.3176 148.569C66.2018 148.268 65.332 147.394 65.0368 146.276C64.654 144.827 65.3192 143.304 66.6429 142.6L70.3719 140.617C72.6085 139.428 75.2469 139.252 77.6218 140.133Z" fill="#FFB997"/>
<path d="M72.2028 147.709L72.9647 140.84C73.0432 140.133 72.2977 139.626 71.6682 139.959L66.3367 142.78C65.1692 143.398 64.5215 144.687 64.7233 145.993C64.9157 147.238 65.843 148.243 67.0689 148.535L70.0289 149.239C71.0661 149.486 72.0852 148.768 72.2028 147.709Z" fill="#FCA378"/>
<path d="M122.517 132.719C131.907 120.655 136.183 96.8759 133.9 85.3203C133.599 83.7972 132.79 82.3788 131.465 81.5701C128.896 80.002 126.453 80.3469 125.232 81.053C124.753 81.3301 124.516 81.8588 124.368 82.3923L113.178 122.805C112.459 125.401 110.599 127.53 108.123 128.591L79.4975 140.859L81.2409 146.206L115.399 137.045C118.156 136.306 120.764 134.971 122.517 132.719Z" fill="#FFB997"/>
<path fill-rule="evenodd" clip-rule="evenodd" d="M126.688 34.4267C131.258 34.5921 136.186 31.299 140.105 33.6104C144.017 35.9173 143.166 41.8304 145.63 45.5979C148.694 50.2824 155.164 52.7726 156.215 58.2412C157.333 64.0627 155.681 70.9125 151.274 74.9657C146.899 78.9902 140.01 78.0308 134.042 78.6355C129.107 79.1357 124.096 79.938 119.466 78.1893C115.025 76.5118 112.164 72.5887 108.941 69.1548C105.615 65.6107 101.599 62.4465 100.328 57.7948C98.9858 52.8855 99.5337 47.508 101.772 42.9235C103.99 38.3786 107.764 34.2713 112.618 32.616C117.178 31.061 121.863 34.2522 126.688 34.4267Z" fill="#25223A"/>
<circle cx="10.3584" cy="10.3584" r="10.3584" transform="matrix(-1 0 0 1 130.826 58.8252)" fill="#FFB997"/>
<path d="M128.531 62.7444C132.17 66.3838 132.394 77.974 120.972 79.5417C124.331 77.862 129.93 72.5428 128.531 62.7444Z" fill="#FCA378"/>
<path d="M53.1987 280.668C54.2721 281.098 55.1529 281.653 55.7114 282.185C55.9914 282.452 56.1709 282.695 56.2629 282.894C56.3541 283.091 56.3407 283.201 56.3189 283.256C56.297 283.311 56.231 283.399 56.0285 283.48C55.8247 283.56 55.5271 283.612 55.1403 283.612C54.3689 283.612 53.3482 283.406 52.2748 282.976C51.2014 282.547 50.3205 281.992 49.7621 281.46C49.482 281.193 49.3025 280.95 49.2106 280.751C49.1192 280.553 49.1327 280.443 49.1546 280.389C49.1766 280.334 49.2427 280.245 49.445 280.165C49.6488 280.085 49.9465 280.032 50.3332 280.033C51.1046 280.033 52.1253 280.239 53.1987 280.668Z" stroke="#25223A"/>
<path d="M54.188 277.032C54.9632 277.342 55.5934 277.742 55.9877 278.117C56.1856 278.306 56.3052 278.47 56.3632 278.596C56.3913 278.657 56.4009 278.699 56.4033 278.724C56.4054 278.747 56.4014 278.755 56.4011 278.756C56.4005 278.757 56.3972 278.765 56.3811 278.78C56.3622 278.796 56.3258 278.82 56.2634 278.845C56.1349 278.896 55.9348 278.933 55.6612 278.933C55.1165 278.933 54.3848 278.787 53.6095 278.477C52.8345 278.167 52.205 277.768 51.8107 277.392C51.6124 277.203 51.4926 277.038 51.4347 276.912C51.4066 276.852 51.3969 276.809 51.3946 276.784C51.3927 276.762 51.3958 276.754 51.3964 276.753C51.3968 276.752 51.3995 276.744 51.4167 276.728C51.4357 276.712 51.4721 276.688 51.5344 276.663C51.663 276.612 51.8636 276.576 52.1372 276.576C52.6819 276.576 53.4129 276.722 54.188 277.032Z" stroke="#25223A"/>
</svg>
