<svg width="430" height="464" viewBox="0 0 430 464" fill="none" xmlns="http://www.w3.org/2000/svg">
<path opacity="0.3" fill-rule="evenodd" clip-rule="evenodd" d="M76.8026 171.146C43.2217 224.698 48.1372 296.092 93.0926 346.063C135.174 392.84 202.788 394.328 260.413 375.244C324.048 354.17 390.042 315.799 385.766 249.136C381.204 178.006 314.943 124.815 243.19 106.703C177.017 89.9992 110.961 116.675 76.8026 171.146Z" fill="#FEC091"/>
<path opacity="0.3" fill-rule="evenodd" clip-rule="evenodd" d="M350.634 109.198C363.379 95.6107 364.12 72.8738 351.061 53.0967C338.836 34.5839 316.77 27.8287 297.295 28.4228C275.788 29.0788 252.941 34.9129 252.146 56.114C251.298 78.7359 271.22 101.5 294.093 113.828C315.187 125.197 337.67 123.019 350.634 109.198Z" fill="#FEC091"/>
<path d="M291.616 255.073L291.204 258.862L288.466 260.767L291.719 261.505L293.524 264.861L293.936 261.073L296.675 259.167L293.421 258.429L291.616 255.073Z" fill="#FEC091"/>
<path d="M220.602 296.679L220.189 300.467L217.451 302.373L220.704 303.111L222.509 306.467L222.921 302.679L225.66 300.773L222.406 300.035L220.602 296.679Z" fill="#FEC091"/>
<path d="M260.536 123.258L257.573 127.007L253.393 127.206L256.358 130.159L256.037 134.927L259.001 131.178L263.18 130.979L260.216 128.026L260.536 123.258Z" fill="#FEC091"/>
<path d="M128.853 94.5732L128.752 97.8783L126.512 99.7121L129.376 100.131L131.165 102.912L131.265 99.607L133.506 97.7733L130.641 97.3547L128.853 94.5732Z" fill="#FEC091"/>
<path d="M85.8135 187.826L85.7127 191.131L83.4724 192.965L86.337 193.383L88.1252 196.165L88.2261 192.859L90.4664 191.026L87.6017 190.607L85.8135 187.826Z" fill="#FEC091"/>
<path d="M276.757 85.2387L276.656 88.5439L274.415 90.3776L277.28 90.7962L279.068 93.5777L279.169 90.2725L281.409 88.4388L278.545 88.0202L276.757 85.2387Z" fill="#FEC091"/>
<path d="M368.473 163.477L368.616 166.153L366.931 167.786L369.273 167.93L370.906 170.055L370.763 167.379L372.448 165.746L370.106 165.602L368.473 163.477Z" fill="#FEC091"/>
<g opacity="0.5">
<ellipse cx="131.498" cy="5.87091" rx="131.498" ry="5.87091" transform="matrix(-1 0 0 1 357.453 416.84)" fill="#FEC091"/>
</g>
<path d="M45.6124 226.032C40.8262 210.384 49.8357 193.859 65.5816 189.405L76.1426 186.418C86.9428 183.362 98.5381 186.77 105.968 195.183L142.635 236.7L65.8368 292.154L45.6124 226.032Z" fill="#FF992D"/>
<path d="M102.752 236.939C109.701 228.092 110.948 216.039 105.958 205.957L103.572 201.136C102.059 198.08 106.119 195.353 108.376 197.909L142.635 236.7L64.1269 286.109L102.752 236.939Z" fill="#E87F0F"/>
<ellipse cx="355.228" cy="222.807" rx="44.4965" ry="30.3623" transform="rotate(-15.7946 355.228 222.807)" fill="#C86709"/>
<path d="M364.296 220.241C368.86 236.376 362.522 257.192 341.1 263.252C319.679 269.311 316.473 251.195 311.908 235.059C307.344 218.924 299.873 199.294 321.294 193.234C342.716 187.175 359.731 204.105 364.296 220.241Z" fill="#C86709"/>
<path d="M86.5455 251.971C164.362 198.285 264.746 176.706 306.608 174.101C316.318 173.496 325.751 176.893 332.673 183.729C354.393 205.181 359.461 231.908 358.121 253.552C356.968 272.176 341.309 285.349 323.05 289.197C230.372 308.727 145.089 307.97 94.4265 299.884C65.9073 295.332 62.7736 268.371 86.5455 251.971Z" fill="#FF992D"/>
<path d="M132.336 251.998L132.103 256.771L128.818 259.362L132.946 260.042L135.457 264.109L135.69 259.335L138.975 256.744L134.847 256.064L132.336 251.998Z" fill="#FEC091"/>
<path d="M199.79 280.282L199.95 283.568L202.211 285.352L199.37 285.82L197.641 288.619L197.481 285.333L195.22 283.55L198.061 283.081L199.79 280.282Z" fill="#FEC091"/>
<path d="M146.056 291.406C164.415 292.651 174.273 292.858 189.443 292.551C240.501 291.521 303.703 276.168 333.488 274.972C347.472 274.41 341.936 285.179 328.273 288.212C257.558 303.912 192.054 307.564 142.479 304.969C105.283 303.021 108.895 288.885 146.056 291.406Z" fill="#FF992D"/>
<path d="M317.605 284.044L310.338 258.354L291.695 292.461L317.605 284.044Z" fill="#FF992D"/>
<path d="M342.935 194.73C335.685 161.718 337.671 148.344 345.206 146.213C354.275 143.647 371.387 176.073 383.428 218.637C395.468 261.202 397.876 297.787 388.807 300.352C381.273 302.483 369.573 285.364 358.456 253.446" stroke="#25223A" stroke-width="2.91914"/>
<path d="M376.955 218.837C387.028 254.446 390.454 284.654 384.608 286.307C381.092 287.302 375.632 279.892 369.497 265.556M348.131 157.354C351.319 156.453 356.606 164.228 362.388 177.259" stroke="#25223A" stroke-width="0.729785" stroke-linecap="round" stroke-dasharray="58.38 58.38"/>
<path d="M379.025 274.83C380.951 274.285 380.698 266.871 378.235 254.134M348.532 167.033C346.785 167.527 347.248 175.146 349.395 186.799" stroke="#25223A" stroke-width="0.729785" stroke-linecap="round" stroke-dasharray="58.38 58.38"/>
<path d="M230.271 272.372C232.583 265.541 238.11 260.287 245.049 258.325L276.053 249.555C294.712 244.276 310.515 264.07 301.237 281.097L265.421 346.826C262.367 352.432 257.018 356.425 250.776 357.76L210.067 366.467C204.531 367.651 199.813 362.354 201.628 356.991L230.271 272.372Z" fill="#FFBE78"/>
<path d="M199.573 363.162C200.11 361.405 201.453 360.009 203.188 359.406L252.37 342.315C260.413 339.52 265.899 350.434 258.857 355.221C258.21 355.661 257.497 355.993 256.744 356.206L206.643 370.378C202.261 371.618 198.244 367.517 199.573 363.162Z" fill="#FF992D"/>
<path d="M66.0051 291.582C67.2698 286.502 71.1583 282.488 76.1956 281.063L107.176 272.3C119.928 268.693 130.015 283.28 122.139 293.938L120.634 295.975C106.965 314.472 87.5397 327.905 65.4085 334.165C60.6138 335.522 56.1435 331.191 57.3473 326.356L66.0051 291.582Z" fill="#FFBE78"/>
<path d="M90.6099 250.873C97.5075 243.844 117.754 232.206 134.056 223.677" stroke="white" stroke-width="1.45957" stroke-linecap="round"/>
<path d="M280.97 187.233C283.725 196.969 268.366 209.839 246.667 215.977C224.967 222.115 205.144 219.198 202.389 209.461C199.635 199.724 216.561 192.395 238.26 186.257C259.96 180.119 278.216 177.496 280.97 187.233Z" fill="#C86709"/>
<path d="M280.971 187.233C283.725 196.97 268.367 209.839 246.667 215.977C224.968 222.115 205.144 219.198 202.39 209.461C199.636 199.724 217.157 211.812 238.857 205.674C260.556 199.536 268.871 194.464 280.971 187.233Z" fill="#C86709"/>
<circle cx="341.715" cy="221.189" r="4.18844" transform="rotate(-15.7946 341.715 221.189)" fill="#C86709"/>
<circle cx="335.577" cy="203.34" r="3.14133" transform="rotate(-15.7946 335.577 203.34)" fill="#C86709"/>
<circle cx="325.981" cy="188.646" r="2.09422" transform="rotate(-15.7946 325.981 188.646)" fill="#C86709"/>
<circle cx="346.122" cy="240.615" r="3.14133" transform="rotate(-15.7946 346.122 240.615)" fill="#C86709"/>
<circle cx="347.659" cy="257.589" r="2.09422" transform="rotate(-15.7946 347.659 257.589)" fill="#C86709"/>
<circle cx="315.071" cy="180.851" r="1.04711" transform="rotate(-15.7946 315.071 180.851)" fill="#C86709"/>
<circle cx="345.756" cy="270.095" r="1.04711" transform="rotate(-15.7946 345.756 270.095)" fill="#C86709"/>
<path opacity="0.6" d="M260.384 331.783L297.25 258.247" stroke="white" stroke-width="2.91914" stroke-linecap="round"/>
<path d="M58.7999 203.211C58.7863 201.725 60.7429 201.171 61.5096 202.444L62.5047 204.096C62.997 204.913 64.128 205.046 64.7964 204.366L66.1475 202.99C67.1886 201.929 68.9634 202.921 68.6056 204.364L68.1412 206.235C67.9114 207.161 68.6172 208.055 69.5711 208.046L71.4994 208.029C72.9854 208.015 73.5388 209.972 72.266 210.738L70.6141 211.734C69.7969 212.226 69.664 213.357 70.3447 214.025L71.7207 215.376C72.781 216.417 71.7889 218.192 70.3466 217.834L68.475 217.37C67.549 217.14 66.6552 217.846 66.664 218.8L66.6816 220.728C66.6952 222.214 64.7387 222.768 63.9719 221.495L62.9768 219.843C62.4845 219.026 61.3535 218.893 60.6851 219.574L59.334 220.95C58.2929 222.01 56.5181 221.018 56.8759 219.575L57.3403 217.704C57.5701 216.778 56.8643 215.884 55.9104 215.893L53.9821 215.91C52.4961 215.924 51.9427 213.967 53.2156 213.201L54.8674 212.206C55.6846 211.713 55.8175 210.582 55.1368 209.914L53.7608 208.563C52.7005 207.522 53.6926 205.747 55.1349 206.105L57.0065 206.569C57.9325 206.799 58.8263 206.093 58.8175 205.139L58.7999 203.211Z" fill="#FF5B59"/>
<path d="M59.9086 205.676C59.8988 204.608 61.3048 204.21 61.8558 205.125L62.5709 206.312C62.9246 206.899 63.7374 206.995 64.2177 206.506L65.1886 205.517C65.9368 204.755 67.2121 205.468 66.955 206.504L66.6212 207.849C66.4561 208.514 66.9633 209.157 67.6488 209.15L69.0346 209.138C70.1024 209.128 70.5001 210.534 69.5854 211.085L68.3983 211.8C67.8111 212.154 67.7155 212.967 68.2047 213.447L69.1935 214.418C69.9555 215.166 69.2425 216.441 68.2062 216.184L66.8611 215.85C66.1957 215.685 65.5535 216.192 65.5597 216.878L65.5724 218.264C65.5822 219.332 64.1762 219.729 63.6252 218.815L62.9101 217.627C62.5564 217.04 61.7436 216.945 61.2633 217.434L60.2924 218.423C59.5443 219.185 58.2689 218.472 58.526 217.435L58.8598 216.09C59.0249 215.425 58.5177 214.783 57.8322 214.789L56.4464 214.802C55.3787 214.811 54.981 213.405 55.8956 212.854L57.0827 212.139C57.67 211.786 57.7655 210.973 57.2764 210.492L56.2875 209.522C55.5255 208.773 56.2385 207.498 57.2749 207.755L58.6199 208.089C59.2853 208.254 59.9276 207.747 59.9213 207.061L59.9086 205.676Z" fill="#FF5B59"/>
<path d="M119.638 286.184C112.271 298.605 106.734 315.186 67.181 327.68" stroke="white" stroke-width="1.45957" stroke-linecap="round"/>
<mask id="mask0_1_734" style="mask-type:alpha" maskUnits="userSpaceOnUse" x="202" y="180" width="80" height="40">
<path d="M280.97 187.233C283.724 196.969 268.366 209.839 246.666 215.977C224.967 222.115 205.143 219.198 202.389 209.461C199.635 199.724 216.56 192.395 238.26 186.257C259.959 180.119 278.215 177.496 280.97 187.233Z" fill="#C86709"/>
</mask>
<g mask="url(#mask0_1_734)">
<path d="M210.836 223.936C206.162 175.726 207.485 167.28 213.03 156.395C214.573 153.366 218.287 152.457 221.685 152.535C223.267 152.571 224.663 152.256 225.883 151.68C228.535 150.428 231.577 149.191 233.991 150.857C247.191 159.968 260.732 186.374 269.97 213.737L210.836 223.936Z" fill="#FF5B59"/>
</g>
<path d="M208.876 191.31C210.066 166.843 209.494 163.823 213.076 156.425C214.557 153.366 218.287 152.458 221.686 152.536C223.268 152.572 224.664 152.257 225.884 151.681C228.536 150.429 231.571 149.179 234.116 150.636C246.408 157.669 255.942 173.251 265.116 200.423L225.867 206.678C216.632 208.15 208.422 200.651 208.876 191.31Z" fill="#FF5B59"/>
<path d="M271.616 186.741L270.313 188.347L272.124 194.75L279.754 193.597C282.542 193.176 285.116 191.856 287.085 189.839L288.379 188.513C289.372 187.496 289.745 186.026 289.358 184.658C288.857 182.884 287.2 181.689 285.358 181.772L281.085 181.965C277.391 182.132 273.945 183.87 271.616 186.741Z" fill="#FCA378"/>
<path d="M282.392 190.29L277.797 184.174C277.172 183.343 277.732 182.152 278.771 182.103L285.795 181.771C287.417 181.695 288.91 182.654 289.513 184.162C290.088 185.601 289.736 187.245 288.621 188.321L286.26 190.598C285.14 191.678 283.327 191.534 282.392 190.29Z" fill="#E87F0F"/>
<path d="M212.947 202.971C210.015 187.238 210.879 168.174 213.633 156.924C214.403 153.779 218.963 152.397 222.198 152.548C225.537 152.704 227.044 155.139 227.314 158.47L229.342 183.477C230.02 191.841 238.353 197.36 246.319 194.72L267.653 187.65C268.88 187.243 270.198 187.942 270.55 189.186C272.079 194.593 269.42 200.305 264.297 202.615L239.411 213.837C228.255 218.867 215.19 215.001 212.947 202.971Z" fill="#DF1E1C"/>
<path fill-rule="evenodd" clip-rule="evenodd" d="M221.525 107.225C229.653 106.906 211.765 112.135 219.637 114.234C227.989 116.461 222.034 111.232 227.011 118.351C226.227 124.415 227.826 112.292 227.011 118.351C225.847 127.001 229.084 138.461 222.021 143.505C215.087 148.456 233.421 137.884 225.454 140.883C209.399 146.928 201.109 171.596 184.04 169.713C169.993 168.163 164.371 148.024 162.447 133.931C160.687 121.035 180.799 152.265 186.337 140.533C190.469 131.781 195.432 123.657 202.696 117.305C209.294 111.535 212.776 107.568 221.525 107.225Z" fill="#25223A"/>
<circle cx="218.546" cy="132.153" r="18.0865" transform="rotate(-15.7946 218.546 132.153)" fill="#E87F0F"/>
<circle cx="218.546" cy="132.153" r="18.0865" transform="rotate(-15.7946 218.546 132.153)" fill="#FCA378"/>
<path d="M222.622 149.796C202.686 152.591 201.702 134.812 206.086 126.967C231.972 111.85 234.906 113.488 230.484 121.398C228.884 123.503 217.047 125.511 215.766 128.226C213.696 132.61 213.316 140.066 215.81 144.863C217.437 147.992 221.713 149.623 222.622 149.796Z" fill="#E87F0F"/>
<rect x="210.295" y="131.108" width="14.8675" height="2.97349" transform="rotate(-15.7946 210.295 131.108)" fill="#27A2A1"/>
<path d="M227.555 121.741C231.533 120.998 234.235 117.071 232.332 113.5C231.393 111.737 230.238 110.09 228.889 108.602C225.895 105.302 222.068 102.922 217.849 101.739C213.631 100.555 209.192 100.616 205.045 101.914C200.899 103.211 197.214 105.693 194.414 109.073C191.615 112.453 189.816 116.593 189.225 121.015C188.634 125.438 189.275 129.963 191.074 134.068C192.872 138.173 195.756 141.692 199.391 144.218C200.953 145.303 202.627 146.186 204.373 146.853C208.186 148.311 211.69 144.994 211.774 140.912L211.988 130.56C212.06 127.104 214.546 124.172 217.944 123.537L227.555 121.741Z" fill="#2AB0AF"/>
<path d="M196.615 127.174C192.618 127.831 189.831 131.704 191.663 135.317C193.016 137.984 194.852 140.393 197.094 142.402C199.269 144.35 201.753 145.857 204.412 146.868C208.228 148.319 211.725 144.996 211.803 140.915L211.945 133.388C212.032 128.829 207.964 125.309 203.465 126.048L196.615 127.174Z" fill="#27A2A1"/>
<path d="M236.434 125.95C237.362 129.232 235.354 132.673 231.949 133.636C228.543 134.6 225.03 132.721 224.101 129.439C223.173 126.158 226.115 126.017 229.521 125.054C232.926 124.091 235.506 122.669 236.434 125.95Z" fill="#45CFCE"/>
<path d="M236.435 125.95C237.363 129.232 235.355 132.673 231.949 133.637C228.544 134.6 225.03 132.721 224.102 129.439C223.174 126.158 227.832 132.083 231.237 131.12C234.643 130.156 235.507 122.669 236.435 125.95Z" fill="#27A2A1"/>
</svg>
