<svg width="215" height="314" viewBox="0 0 215 314" fill="none" xmlns="http://www.w3.org/2000/svg">
<path opacity="0.3" fill-rule="evenodd" clip-rule="evenodd" d="M119.814 42.056C161.815 42.3211 200.109 73.2063 212.123 120.335C223.369 164.452 200.117 206.582 168.883 234.545C134.392 265.424 89.3595 291.002 53.4907 262.356C15.2182 231.791 8.98875 170.312 24.3916 119.151C38.5966 71.9675 77.0919 41.7864 119.814 42.056Z" fill="#FEC091"/>
<path opacity="0.3" fill-rule="evenodd" clip-rule="evenodd" d="M30.5069 12.4392C42.919 12.5148 54.2358 21.3167 57.7862 34.7479C61.1097 47.3205 54.238 59.327 45.0077 67.2961C34.8149 76.0962 21.5067 83.3856 10.9067 75.222C-0.403677 66.5112 -2.24462 48.9907 2.30726 34.4102C6.50516 20.9636 17.8814 12.3624 30.5069 12.4392Z" fill="#FEC091"/>
<rect x="17.7686" y="90.208" width="31.3912" height="21.5814" rx="2" transform="rotate(-16.7806 17.7686 90.208)" fill="white"/>
<line x1="33.4877" y1="88.8034" x2="37.7332" y2="102.882" stroke="#25223A" stroke-width="0.5" stroke-linecap="round"/>
<rect x="41.1592" y="86.2292" width="5.39536" height="5.39536" rx="2" transform="rotate(-16.7806 41.1592 86.2292)" fill="#FF5B59"/>
<rect x="42.3818" y="86.8843" width="3.43341" height="3.43341" rx="1.71671" transform="rotate(-16.7806 42.3818 86.8843)" fill="#FF5B59"/>
<rect x="43.6043" y="87.5403" width="1.47146" height="1.47146" rx="0.735731" transform="rotate(-16.7806 43.6043 87.5403)" fill="white"/>
<circle cx="42.6723" cy="92.9441" r="3.18341" transform="rotate(-16.7806 42.6723 92.9441)" stroke="#25223A" stroke-width="0.5"/>
<path d="M43.7082 94.6805C42.4114 95.0715 41.17 94.7578 40.9354 93.9797" stroke="#25223A" stroke-width="0.5" stroke-linecap="round"/>
<path d="M50.0596 96.4477C50.1256 96.3264 50.0808 96.1746 49.9596 96.1086C49.8383 96.0426 49.6865 96.0874 49.6205 96.2087L50.0596 96.4477ZM39.4391 100.342C39.7391 99.863 40.3521 99.205 41.1995 98.8121C42.037 98.4238 43.1093 98.2908 44.361 98.8575L44.5672 98.402C43.1723 97.7704 41.9477 97.9141 40.9892 98.3585C40.0405 98.7984 39.3584 99.529 39.0155 100.076L39.4391 100.342ZM44.361 98.8575C45.774 99.4972 47.0333 99.2177 48.0165 98.6165C48.9895 98.0215 49.6994 97.1095 50.0596 96.4477L49.6205 96.2087C49.2914 96.8132 48.6366 97.6512 47.7556 98.1899C46.8847 98.7225 45.8007 98.9605 44.5672 98.402L44.361 98.8575Z" fill="#FF5B59"/>
<path d="M50.3431 97.3869C50.4091 97.2656 50.3643 97.1138 50.243 97.0478C50.1217 96.9818 49.9699 97.0266 49.9039 97.1479L50.3431 97.3869ZM39.7226 101.281C40.0225 100.802 40.6355 100.144 41.4829 99.7514C42.3205 99.363 43.3927 99.23 44.6444 99.7967L44.8506 99.3412C43.4558 98.7097 42.2311 98.8533 41.2726 99.2977C40.3239 99.7376 39.6418 100.468 39.2989 101.015L39.7226 101.281ZM44.6444 99.7967C46.0574 100.436 47.3167 100.157 48.2999 99.5557C49.2729 98.9607 49.9828 98.0488 50.3431 97.3869L49.9039 97.1479C49.5748 97.7524 48.92 98.5904 48.039 99.1291C47.1681 99.6617 46.0841 99.8997 44.8506 99.3412L44.6444 99.7967Z" fill="#FF5B59"/>
<path d="M50.6262 98.3254C50.6922 98.2041 50.6474 98.0523 50.5262 97.9863C50.4049 97.9203 50.2531 97.9651 50.1871 98.0863L50.6262 98.3254ZM40.0057 102.219C40.3057 101.741 40.9187 101.083 41.7661 100.69C42.6036 100.302 43.6759 100.168 44.9276 100.735L45.1338 100.28C43.7389 99.6481 42.5142 99.7918 41.5558 100.236C40.6071 100.676 39.925 101.407 39.5821 101.954L40.0057 102.219ZM44.9276 100.735C46.3405 101.375 47.5999 101.095 48.583 100.494C49.5561 99.8992 50.266 98.9872 50.6262 98.3254L50.1871 98.0863C49.858 98.6909 49.2032 99.5289 48.3222 100.068C47.4513 100.6 46.3673 100.838 45.1338 100.28L44.9276 100.735Z" fill="#FF5B59"/>
<line x1="20.8056" y1="92.616" x2="30.6581" y2="89.645" stroke="#25223A" stroke-width="0.5" stroke-linecap="round"/>
<line x1="21.6551" y1="95.4353" x2="28.69" y2="93.3139" stroke="#25223A" stroke-width="0.5" stroke-linecap="round"/>
<line x1="22.5051" y1="98.2524" x2="32.3576" y2="95.2814" stroke="#25223A" stroke-width="0.5" stroke-linecap="round"/>
<line x1="23.3546" y1="101.07" x2="33.2071" y2="98.0986" stroke="#25223A" stroke-width="0.5" stroke-linecap="round"/>
<line x1="24.2041" y1="103.887" x2="34.0566" y2="100.916" stroke="#25223A" stroke-width="0.5" stroke-linecap="round"/>
<line x1="25.0536" y1="106.706" x2="34.9061" y2="103.735" stroke="#25223A" stroke-width="0.5" stroke-linecap="round"/>
<path fill-rule="evenodd" clip-rule="evenodd" d="M203.648 96.6933L207.576 97.693C207.551 98.2114 207.892 98.6933 208.414 98.8263C208.937 98.9592 209.467 98.699 209.692 98.2314L211.44 98.6764L211.001 100.402C210.405 100.251 209.799 100.611 209.648 101.207C209.496 101.803 209.856 102.409 210.452 102.561L209.462 106.448C208.867 106.296 208.261 106.657 208.109 107.252C207.957 107.848 208.317 108.454 208.913 108.606L207.925 112.491C207.329 112.34 206.723 112.7 206.571 113.296C206.419 113.892 206.779 114.498 207.375 114.65L206.387 118.534C205.791 118.383 205.185 118.743 205.033 119.339C204.882 119.935 205.242 120.541 205.837 120.693L205.562 121.773L203.836 121.333C203.836 121.333 203.836 121.333 203.836 121.333C203.987 120.737 203.627 120.131 203.031 119.979C202.435 119.827 201.829 120.187 201.677 120.783C201.677 120.784 201.677 120.784 201.677 120.784L197.792 119.795C197.943 119.199 197.583 118.593 196.987 118.441C196.391 118.29 195.785 118.65 195.633 119.246L191.748 118.257C191.9 117.661 191.539 117.055 190.943 116.903C190.347 116.751 189.741 117.112 189.589 117.708L187.863 117.268L188.137 116.189C188.733 116.341 189.339 115.981 189.491 115.385C189.643 114.789 189.282 114.183 188.686 114.031L189.675 110.146L189.676 110.146C190.272 110.298 190.878 109.938 191.029 109.341C191.181 108.745 190.821 108.139 190.225 107.988L190.224 107.987L191.213 104.102L191.213 104.102C191.809 104.253 192.416 103.893 192.567 103.297C192.719 102.701 192.359 102.095 191.763 101.943L191.763 101.943L192.751 98.0573C193.348 98.209 193.954 97.8487 194.105 97.2527C194.257 96.6567 193.897 96.0506 193.301 95.8988L193.74 94.1719L195.489 94.6169C195.463 95.1349 195.805 95.6165 196.327 95.7494C196.849 95.8822 197.379 95.6223 197.604 95.1552L201.533 96.155C201.507 96.6731 201.848 97.1549 202.371 97.2878C202.893 97.4207 203.423 97.1607 203.648 96.6933Z" fill="#FF5B59"/>
<rect x="195.117" y="96.4919" width="14.2995" height="19.5427" transform="rotate(14.2782 195.117 96.4919)" fill="white"/>
<rect x="196.309" y="99.4519" width="10.5302" height="14.3913" rx="2" transform="rotate(14.2782 196.309 99.4519)" fill="#26C589"/>
<path d="M192.803 113.356L206.754 102.021" stroke="white"/>
<path d="M196.582 115.971L206.754 107.542" stroke="white"/>
<path d="M193.094 107.251L203.267 98.8228" stroke="white"/>
<ellipse opacity="0.5" cx="109.74" cy="308.472" rx="79.5004" ry="4.84758" fill="#FEC091"/>
<path d="M117.925 181.864L110.954 148.913L57.6176 204.357L74.6022 225.857L113.212 195.013C117.142 191.873 118.966 186.785 117.925 181.864Z" fill="#27A2A1"/>
<path d="M98.2519 134.293L108.236 173.848C109.562 179.1 107.57 184.632 103.201 187.835L67.7226 213.842" stroke="white" stroke-width="4.4351"/>
<path fill-rule="evenodd" clip-rule="evenodd" d="M190.582 218.466C192.613 221.254 189.109 225.134 189.653 228.547C189.984 230.631 192.332 231.721 193.01 233.718C194.357 237.687 198.319 242.633 195.489 245.739C192.8 248.692 187.975 244.22 184.052 243.553C181.462 243.113 178.966 243.203 176.436 242.5C172.931 241.527 168.242 241.877 166.501 238.68C164.783 235.525 167.35 231.701 168.748 228.381C169.913 225.615 171.561 223.172 173.847 221.231C176.09 219.328 178.691 217.96 181.587 217.482C184.641 216.977 188.761 215.968 190.582 218.466Z" fill="#FF992D"/>
<path d="M171.687 168.492L161.952 117.394C160.583 110.206 153.667 105.473 146.471 106.799L137.12 108.523C129.863 109.86 125.08 116.849 126.461 124.098L136.166 175.038" stroke="#25223A" stroke-width="8.8702" stroke-linecap="round"/>
<path fill-rule="evenodd" clip-rule="evenodd" d="M189.339 221.456C190.936 223.647 188.181 226.698 188.608 229.38C188.869 231.019 190.714 231.876 191.247 233.446C192.307 236.566 195.421 240.454 193.197 242.895C191.083 245.216 187.29 241.701 184.206 241.177C182.17 240.831 180.208 240.901 178.219 240.349C175.463 239.584 171.778 239.859 170.409 237.346C169.059 234.866 171.077 231.86 172.176 229.25C173.091 227.076 174.386 225.155 176.184 223.63C177.947 222.133 179.992 221.058 182.268 220.682C184.669 220.286 187.907 219.492 189.339 221.456Z" fill="#E87F0F"/>
<rect x="124.091" y="175.199" width="60.3084" height="86.4281" rx="13.3053" transform="rotate(-10.4421 124.091 175.199)" fill="#E87F0F"/>
<path d="M122.512 182.799L127.241 176.494L130.918 187.527L122.512 182.799Z" fill="#E87F0F"/>
<path d="M191.861 253.461L196.589 247.156L191.073 243.741L191.861 253.461Z" fill="#E87F0F"/>
<rect x="119.888" y="180.978" width="60.3084" height="86.4281" rx="13.3053" transform="rotate(-10.4421 119.888 180.978)" fill="#FF992D"/>
<path opacity="0.5" d="M133.286 252.705L124.37 203.484C136.4 251.308 158.242 260.741 169.692 259.488L172.076 259.04C171.345 259.241 170.547 259.395 169.692 259.488L148.837 263.41C141.581 264.774 134.602 259.97 133.286 252.705Z" fill="#E87F0F"/>
<rect x="132.705" y="188.235" width="5.15988" height="67.9385" rx="2.57994" transform="rotate(-10.4421 132.705 188.235)" fill="#E87F0F"/>
<rect x="149.62" y="185.117" width="5.15988" height="67.9385" rx="2.57994" transform="rotate(-10.4421 149.62 185.117)" fill="#E87F0F"/>
<rect x="166.535" y="182" width="5.15988" height="67.9385" rx="2.57994" transform="rotate(-10.4421 166.535 182)" fill="#E87F0F"/>
<path d="M64.3961 173.14L64.6982 175.914L66.7038 177.31L64.3209 177.85L62.9992 180.308L62.6971 177.534L60.6915 176.138L63.0744 175.598L64.3961 173.14Z" fill="#FEC091"/>
<path d="M121.662 235.134L121.964 237.908L123.969 239.304L121.587 239.844L120.265 242.302L119.963 239.528L117.957 238.132L120.34 237.592L121.662 235.134Z" fill="#FEC091"/>
<path d="M118.681 87.1041L120.852 89.8499L123.913 89.9955L121.742 92.1582L121.976 95.6505L119.806 92.9046L116.745 92.7591L118.916 90.5963L118.681 87.1041Z" fill="#FEC091"/>
<path d="M125.815 8.30317L125.889 10.7236L127.53 12.0665L125.432 12.373L124.122 14.4099L124.048 11.9895L122.408 10.6466L124.506 10.3401L125.815 8.30317Z" fill="#FEC091"/>
<path d="M188.41 156.175L188.58 159.671L190.987 161.569L187.963 162.067L186.124 165.045L185.954 161.549L183.547 159.651L186.571 159.153L188.41 156.175Z" fill="#FEC091"/>
<path d="M57.4904 64.0247L57.3859 65.9845L58.6197 67.1803L56.9047 67.2855L55.7089 68.8417L55.8135 66.8819L54.5796 65.6861L56.2947 65.5809L57.4904 64.0247Z" fill="#FEC091"/>
<circle cx="152.842" cy="266.287" r="2.57994" transform="rotate(-10.4421 152.842 266.287)" fill="#25223A"/>
<circle cx="182.442" cy="260.832" r="2.57994" transform="rotate(-10.4421 182.442 260.832)" fill="#25223A"/>
<path d="M139.28 176.392L165.498 171.56C166.242 175.601 163.57 179.48 159.53 180.225L147.944 182.36C143.904 183.105 140.024 180.433 139.28 176.392Z" fill="#E87F0F"/>
<path d="M139.279 176.393L165.593 171.504C166.102 174.588 164.048 177.512 160.973 178.079L145.79 180.877C142.754 181.437 139.839 179.429 139.279 176.393Z" fill="white"/>
<path d="M140.771 171.898L139.187 176.648L165.576 171.634L165.84 167.411L140.771 171.898Z" fill="#FEC091"/>
<path d="M126.773 104.877L124.689 106.345V111.86L131.654 112.74C133.571 112.982 135.514 112.592 137.188 111.63L139.061 110.553C140.082 109.966 140.711 108.877 140.711 107.699C140.711 106.171 139.66 104.844 138.172 104.495L133.907 103.494C131.441 102.915 128.845 103.419 126.773 104.877Z" fill="#E87F0F"/>
<path d="M134.037 111.012L131.473 104.376C131.216 103.712 131.808 103.031 132.501 103.193L138.521 104.592C139.832 104.897 140.806 106 140.947 107.339C141.081 108.616 140.429 109.847 139.297 110.454L136.529 111.936C135.59 112.44 134.421 112.007 134.037 111.012Z" fill="#E87F0F"/>
<path d="M118.018 136.648L105.963 73.521L112.1 145.615C116.176 144.723 118.801 140.747 118.018 136.648Z" fill="white"/>
<path d="M85.96 265.448V250.678C93.6508 252.692 98.9306 251.517 100.609 250.678V256.875L111.584 284.668C111.789 285.187 111.894 285.739 111.894 286.297V287.408C111.894 287.777 111.802 288.141 111.627 288.467C110.944 289.734 109.259 290.035 108.181 289.082L88.9568 272.095C87.0513 270.411 85.96 267.991 85.96 265.448Z" fill="#25223A"/>
<path d="M85.96 250.45V238.09H100.609V250.45C95.8482 252.831 88.8593 251.442 85.96 250.45Z" fill="#E87F0F"/>
<path d="M100.645 246.368H85.8462L85.9992 250.834C92.724 252.936 98.6315 251.622 100.645 250.834V246.368Z" fill="white"/>
<path d="M46.7666 221.901L55.9263 213.602L65.7623 224.458L56.6026 232.757C51.6418 230.827 47.9783 224.716 46.7666 221.901Z" fill="#E87F0F"/>
<path d="M39.4599 228.426L46.7884 221.771C50.4673 228.819 54.8865 231.938 56.6362 232.616L66.988 262.696C67.3475 263.74 67.0504 264.899 66.2325 265.641C65.8938 265.949 65.4841 266.168 65.0402 266.278L64.743 266.352C63.3224 266.704 61.8229 266.248 60.8389 265.165L38.856 240.955C35.5627 237.329 35.8331 231.719 39.4599 228.426Z" fill="#25223A"/>
<path d="M56.5783 232.971C52.5855 231.92 48.4351 225.09 46.859 221.938L49.7485 219.048L59.2052 230.606L56.5783 232.971Z" fill="white"/>
<rect x="58.8876" y="202.857" width="27.5988" height="8.9982" rx="1.77404" transform="rotate(49.8056 58.8876 202.857)" fill="#3D696B" fill-opacity="0.5"/>
<rect x="57.2469" y="202.422" width="30.6717" height="8.24015" rx="1.77404" transform="rotate(49.8056 57.2469 202.422)" fill="#27A2A1"/>
<path d="M78.6354 230.307L73.8286 152.712L111.138 148.821L108.391 230.307H78.6354Z" fill="#2AB0AF"/>
<path d="M94.8253 229.188L94.0174 147.244H95.9966L96.7641 229.188H94.8253Z" fill="white"/>
<path d="M74.1781 152.853L110.954 148.912V156.53L74.1781 158.632V152.853Z" fill="#3D696B" fill-opacity="0.5"/>
<path d="M69.2051 143.284C72.0956 105.333 79.22 79.0412 87.092 67.5441C88.4077 65.6224 91.013 65.6315 93.1672 66.5164C95.0007 67.2697 96.698 67.3338 98.223 66.9232C100.163 66.4008 102.378 66.2212 103.456 67.9168C110.712 79.3247 112.326 115.805 113.445 141.086L113.479 141.849C113.695 146.724 109.95 150.87 105.078 151.141L78.4458 152.62C73.172 152.913 68.8039 148.551 69.2051 143.284Z" fill="#FF5B59"/>
<path d="M69.3204 142.932L72.3394 115.289C69.8216 156.261 85.0903 149.737 92.8727 151.568L78.8748 152.734C73.3164 153.197 68.7148 148.476 69.3204 142.932Z" fill="#FF2E2C"/>
<path d="M75.4244 108.074C76.094 93.8465 81.7499 76.6333 86.9594 67.8215C88.0963 65.8985 90.5807 65.4844 92.658 66.306C93.1738 66.51 93.6814 66.6944 94.1682 66.8603C96.3509 67.6042 97.7394 69.7443 97.2931 72.0067L92.6504 95.5404C91.5376 101.181 96.0024 106.374 101.746 106.119L122.836 105.183C123.846 105.138 124.689 105.945 124.689 106.955V107.526C124.689 111.92 121.472 115.652 117.126 116.299L91.3052 120.148C83.0127 121.383 75.0302 116.448 75.4244 108.074Z" fill="#FF2E2C"/>
<rect x="78.3812" y="228.768" width="29.9461" height="2.62685" rx="1.31343" fill="#3D696B" fill-opacity="0.5"/>
<rect x="78.1778" y="229.848" width="30.6717" height="8.24015" rx="1.77404" fill="#2AB0AF"/>
<path fill-rule="evenodd" clip-rule="evenodd" d="M103.742 13.6652C108.358 14.7774 110.498 20.0796 114.586 22.5094C118.923 25.0872 126.589 23.4436 128.253 28.2331C129.979 33.2015 123.45 37.2359 121.382 42.07C119.978 45.3511 119.494 48.755 118.073 52.0288C116.045 56.7024 116.042 63.6538 111.274 65.3644C106.593 67.0436 102.949 58.8114 97.9975 59.2304C88.0195 60.0747 79.4434 72.6136 70.1553 68.8437C62.5116 65.7412 62.5535 53.5363 63.712 45.3142C64.772 37.7913 71.1068 32.4931 76.0817 26.7835C79.7933 22.5237 83.8715 18.7494 88.9613 16.3355C93.5839 14.1432 98.7731 12.468 103.742 13.6652Z" fill="#25223A"/>
<circle cx="95.5043" cy="53.2283" r="10.5574" fill="#F68853"/>
<path d="M87.2866 46.667C83.5776 50.3764 83.3494 62.1893 94.9911 63.7871C91.567 62.0751 85.8601 56.6537 87.2866 46.667Z" fill="#C86709"/>
<rect x="17.7687" y="90.2095" width="31.3912" height="21.5814" rx="2" transform="rotate(-16.7806 17.7687 90.2095)" fill="white"/>
<line x1="33.7993" y1="88.9723" x2="37.9004" y2="102.573" stroke="#25223A" stroke-linecap="round"/>
<rect x="41.1593" y="86.231" width="5.39536" height="5.39536" rx="2" transform="rotate(-16.7806 41.1593 86.231)" fill="#FF5B59"/>
<rect x="42.3818" y="86.8857" width="3.43341" height="3.43341" rx="1.71671" transform="rotate(-16.7806 42.3818 86.8857)" fill="#FF5B59"/>
<rect x="43.6044" y="87.5417" width="1.47146" height="1.47146" rx="0.735731" transform="rotate(-16.7806 43.6044 87.5417)" fill="white"/>
<circle cx="42.6724" cy="92.9459" r="2.93341" transform="rotate(-16.7806 42.6724 92.9459)" stroke="#25223A"/>
<path d="M43.7083 94.682C42.4115 95.073 41.17 94.7593 40.9354 93.9812" stroke="#25223A" stroke-linecap="round"/>
<rect x="20.7302" y="95.0405" width="11.0116" height="0.592286" rx="0.296143" transform="rotate(-17.0743 20.7302 95.0405)" fill="#25223A"/>
<rect x="21.9146" y="98.5942" width="4.89507" height="0.592286" rx="0.296143" transform="rotate(-17.0743 21.9146 98.5942)" fill="#25223A"/>
</svg>
