<?xml version="1.0" encoding="UTF-8" standalone="no"?><!DOCTYPE svg PUBLIC "-//W3C//DTD SVG 1.1//EN" "http://www.w3.org/Graphics/SVG/1.1/DTD/svg11.dtd"><svg width="100%" height="100%" viewBox="0 0 17780 17780" version="1.1" xmlns="http://www.w3.org/2000/svg" xmlns:xlink="http://www.w3.org/1999/xlink" xml:space="preserve" xmlns:serif="http://www.serif.com/" style="fill-rule:evenodd;clip-rule:evenodd;stroke-linejoin:round;stroke-miterlimit:2;"><rect x="0" y="0" width="17777.779" height="17777.779" style="fill:url(#_Linear1);"/><path d="M5859.691,3352.855c314.825,-206.4 642.979,-386.871 991.004,-531.133c401.637,-166.487 818.729,-274.708 1247.425,-341.738c442.167,-69.133 886.504,-80.667 1330.592,-32.217c924.346,100.85 1772.783,410.462 2542.875,945.412c5.863,1.404 6.475,0.5 9.154,5.637c323.054,230.588 621.083,483.171 876.392,779.946c191.558,222.675 363.217,462.463 544.683,699.863c9.063,15.971 17.179,26.708 25.296,37.446c6.167,0.183 12.333,0.371 12.121,-2.775c-2.013,8.354 2.35,20.038 6.712,31.721c0,0 -0.312,1.15 3.213,8.054c11.4,8.942 19.275,10.979 27.15,13.017l-4.454,-2.358c0,0 -4.938,1.029 -7.35,7.071c9.971,24.217 22.354,42.396 34.738,60.571c0,0 1.617,-1.983 2.4,3.567c6.283,10.979 11.783,16.413 17.279,21.846c0,0 -1.454,-4.038 -1.404,3.021c10.479,24.271 20.908,41.483 31.342,58.696c0,0 0.742,1.062 2.983,6.646c13.592,23.608 24.942,41.633 36.413,59.358c0.121,-0.296 0.046,0.442 1.3,5.546c10.229,19.996 19.2,34.883 28.171,49.775c0,0 0.758,1.017 2.542,6.012c6.588,12.825 11.392,20.658 16.192,28.488c0,0 0.7,0.679 2.921,6.867c12.279,26.929 22.087,47.792 32.429,68.387c512.408,1020.95 691.533,2096.625 528.512,3227.992c-97.858,679.137 -322.979,1313.829 -665.55,1908.212c-183.817,318.938 -404.971,610.171 -640.237,892.125c-0.079,0.358 -0.825,0.417 -5.408,2.638c-5.633,5.446 -6.683,8.671 -8.517,12.633c-0.779,0.738 -3.779,3.783 -7.704,5.15c-3.925,1.371 -6.237,9.354 -8.5,10.208c-5.096,2.808 -6.725,5.496 -9.254,9.783c-2.108,0.871 -3.121,5.317 -5.867,6.929c-6.179,4.312 -8.667,7.708 -11.046,12.45c-0.837,0.654 -1.879,2.508 -4.938,4.442c-6.904,5.021 -9.842,8.812 -12.117,13.867c-0.242,0.558 -1.262,1.225 -4.537,3.317c-7.408,5.412 -10.55,9.487 -10.496,16.387c2.208,2.058 -2.808,-1.304 -6.225,0.779c-7.713,5.433 -11.017,9.579 -11.367,16.4c1.954,1.879 -2.596,-1.079 -6.062,1.138c-7.879,5.737 -11.096,10.129 -11.821,16.054c1.308,0.658 -0.283,-1.8 -4.917,0.438c-11.579,9.258 -18.521,16.283 -30.758,25.5c-220.938,219.908 -436.587,437.625 -657.037,657.488c-10.05,11.167 -15.296,20.183 -19.471,29.592c1.071,0.387 0.358,-1.779 -3.562,0.267c-7.354,6.762 -10.783,11.479 -12.317,17.479c1.896,1.283 -1.125,-2.162 -5.05,-0.117c-7.354,6.758 -10.788,11.475 -12.337,17.45c1.879,1.262 -1.1,-2.146 -5.021,-0.104c-7.362,6.75 -10.8,11.454 -12.296,17.479c1.946,1.317 -1.183,-2.188 -5.087,-0.158c-7.379,6.675 -10.854,11.321 -11.833,17.737c2.496,1.771 -1.879,-2.513 -5.713,-0.475c-7.325,6.588 -10.812,11.142 -10.646,18.183c1.342,0.658 -0.971,-1.167 -7.013,-0.929c-8.421,5.554 -11.9,9.992 -9.583,18.246c1.546,0.892 -1.487,-1.087 -8.142,-0.937c-8.2,5.617 -11.612,10.008 -9.558,19.029c1.425,1.213 -1.446,-1.292 -7.908,-1.671c-8.129,5.6 -11.525,9.962 -9.629,19.475c1.35,1.433 -1.442,-1.396 -7.808,-2.104c-8.087,5.579 -11.463,9.921 -9.629,19.446c1.312,1.471 -1.45,-1.367 -7.746,-2.162c-7.971,5.383 -11.379,9.571 -11.713,16.579c2.033,1.983 -2.663,-1.208 -6.096,0.85c-7.746,5.4 -11.038,9.55 -11.325,16.467c1.988,1.954 -2.625,-1.171 -5.983,0.75c-7.575,5.075 -10.862,9.004 -13.554,14.279c-0.333,0.567 -1.363,1.379 -4.55,3.275c-7.187,4.979 -10.279,8.8 -12.871,13.937c-0.417,0.583 -1.45,1.575 -4.612,3.463c-7.125,4.958 -10.179,8.758 -12.758,13.871c-0.438,0.583 -1.471,1.617 -4.625,3.504c-7.113,4.954 -10.163,8.754 -12.729,13.867c-0.433,0.583 -1.467,1.613 -4.625,3.5c-7.121,4.962 -10.167,8.767 -12.717,13.892c-0.421,0.583 -1.45,1.583 -4.617,3.475c-7.142,4.967 -10.192,8.783 -12.725,13.917c-0.408,0.579 -1.429,1.562 -4.671,3.608c-7.304,5.333 -10.367,9.379 -11.033,15.654c1.392,1.471 -2.121,-0.546 -5.538,1.496c-7.704,5.367 -10.971,9.5 -11.629,16.071c1.579,1.629 -2.283,-0.754 -5.708,1.296c-7.729,5.392 -11,9.546 -11.254,16.4c1.979,1.883 -2.608,-1.087 -6.067,0.992c-7.808,5.463 -11.083,9.683 -9.792,17.571c1.037,1.112 -1.417,-0.604 -7.375,-0.263c-7.9,5.446 -11.221,9.679 -10.212,17.492c3.254,2.733 -3.675,-2.188 -7.163,-0.146c-7.871,5.396 -11.192,9.596 -10.983,16.867c2.462,2.233 -3.012,-1.538 -6.471,0.5c-7.804,5.371 -11.1,9.542 -11.413,16.404c1.929,1.867 -2.571,-1.067 -6.013,0.967c-7.771,5.362 -11.05,9.517 -11.492,16.271c1.792,1.775 -2.454,-0.946 -5.892,1.088c-7.754,5.367 -11.029,9.517 -11.463,16.275c1.804,1.783 -2.467,-0.958 -5.9,1.079c-7.746,5.367 -11.025,9.508 -11.517,16.229c1.758,1.754 -2.425,-0.917 -5.854,1.121c-7.733,5.358 -11.021,9.488 -11.642,16.121c1.642,1.688 -2.338,-0.829 -5.746,1.212c-7.7,5.358 -10.988,9.475 -11.95,15.862c1.325,1.471 -2.079,-0.546 -5.479,1.504c-7.667,5.367 -10.942,9.475 -11.921,15.825c1.3,1.45 -2.058,-0.521 -5.454,1.538c-7.667,5.379 -10.942,9.492 -11.75,15.962c1.467,1.562 -2.196,-0.667 -5.596,1.396c-7.683,5.396 -10.962,9.521 -11.55,16.142c1.688,1.7 -2.371,-0.846 -5.821,1.308c-7.808,5.6 -11.071,9.883 -8.817,19.204c1.442,1.429 -1.529,-1.333 -8.062,-1.962c-8.054,5.6 -11.438,9.929 -9.408,19.413c1.4,1.454 -1.496,-1.379 -7.917,-2.138c-7.958,5.446 -11.371,9.65 -11.246,17.025c2.517,2.342 -3.071,-1.667 -6.504,0.417c-7.758,5.433 -11.075,9.592 -11.142,16.679c2.242,2.125 -2.838,-1.392 -6.246,0.65c-7.692,5.338 -11,9.429 -12.633,15.35c0.696,1.042 -1.592,0.025 -4.946,2.054c-7.567,5.3 -10.817,9.346 -12.796,14.933c0.304,0.762 -1.3,0.429 -4.629,2.442c-7.517,5.258 -10.742,9.279 -13.042,14.608c-0.029,0.538 -1.079,0.779 -4.392,2.779c-7.471,5.225 -10.675,9.221 -13.004,14.513c-0.088,0.529 -1.1,0.875 -4.4,2.871c-7.45,5.217 -10.638,9.208 -12.954,14.496c-0.092,0.529 -1.1,0.888 -4.413,2.904c-7.471,5.267 -10.658,9.292 -12.683,14.763c0.183,0.675 -1.208,0.567 -4.562,2.604c-7.567,5.337 -10.779,9.425 -11.996,15.521c0.996,1.221 -1.808,-0.212 -5.225,1.871c-7.713,5.458 -10.958,9.65 -9.979,17.267c3.171,2.608 -3.608,-2.029 -7.108,0.071c-7.908,5.521 -11.204,9.804 -9.267,18.521c1.292,1.296 -1.538,-0.996 -7.908,-1.196c-8,5.504 -11.337,9.8 -9.512,18.483c1.258,1.279 -1.525,-0.958 -7.85,-1.129c-7.983,5.479 -11.329,9.746 -9.767,17.979c1.158,1.175 -1.488,-0.75 -7.654,-0.617c-7.938,5.446 -11.271,9.688 -10.154,17.575c0.987,1.104 -1.388,-0.579 -7.267,-0.208c-7.9,5.429 -11.217,9.654 -10.458,17.346c2.992,2.617 -3.463,-2.033 -6.904,-0.083c-7.771,5.175 -11.083,9.229 -13.483,14.646c-0.104,0.525 -1.117,0.896 -4.392,2.746c-7.388,4.929 -10.542,8.792 -13.208,14.017c-0.467,0.583 -1.5,1.658 -4.671,3.508c-7.142,4.896 -10.158,8.7 -12.688,13.85c-0.467,0.583 -1.496,1.667 -4.667,3.517c-7.146,4.904 -10.167,8.712 -12.017,13.5c0.212,0.221 -0.375,-0.3 -5.004,3.208c-741.704,738.846 -1478.671,1474.292 -2216.812,2208.55c-11.954,11.892 -38.325,9.296 -59.087,9.642c-4.267,-8.654 -8.725,-11.179 -14.487,-11.4c0,0 -5.037,2.417 -3.917,-2.979c-4.042,-8.562 -9.204,-11.725 -14.367,-14.892c0,0 -0.971,2.013 -1.475,-2.917c-5.717,-8.029 -10.925,-11.137 -16.133,-14.242c0,0 -0.767,1.854 -1.308,-2.988c-5.721,-8.008 -10.9,-11.171 -16.083,-14.333c0,0 -0.746,1.833 -1.296,-3c-5.733,-8.008 -10.913,-11.179 -16.092,-14.354c0,0 -0.692,1.8 -1.263,-3.008c-5.75,-7.992 -10.929,-11.175 -16.108,-14.358c0,0 -0.646,1.775 -1.233,-3.013c-5.762,-7.979 -10.938,-11.175 -16.113,-14.367c0,0 -0.646,1.779 -1.233,-3.013c-5.754,-7.987 -10.921,-11.183 -16.087,-14.379c0,0 -0.679,1.8 -1.254,-3c-5.746,-7.996 -10.917,-11.183 -16.083,-14.375c0,0 -0.663,1.796 -1.187,-3c-5.604,-8.058 -10.683,-11.321 -15.758,-14.588c0,0 -1.329,2.288 -1.642,-2.812c-5.421,-8.271 -10.529,-11.442 -15.638,-14.617c0,0 -1.483,2.404 -1.746,-2.758c-5.379,-8.317 -10.496,-11.463 -15.617,-14.613c0,0 -1.446,2.371 -1.725,-2.775c-5.404,-8.292 -10.525,-11.442 -15.646,-14.592c0,0 -1.437,2.354 -1.762,-2.783c-5.517,-8.221 -10.704,-11.308 -15.896,-14.396c0,0 -0.962,1.992 -1.429,-2.938c-5.633,-8.087 -10.804,-11.242 -15.975,-14.4c0,0 -0.862,1.921 -1.375,-2.962c-5.696,-8.046 -10.883,-11.208 -16.067,-14.371c0,0 -0.704,1.817 -1.288,-2.996c-5.779,-7.983 -10.979,-11.154 -16.179,-14.321c0,0 -0.533,1.708 -1.167,-3.029c-5.833,-7.929 -11.033,-11.121 -16.229,-14.308c0,0 -0.492,1.688 -1.138,-3.033c-5.842,-7.921 -11.042,-11.112 -16.237,-14.308c0,0 -0.492,1.688 -1.129,-3.037c-5.833,-7.921 -11.029,-11.121 -16.221,-14.317c0,0 -0.521,1.704 -1.146,-3.037c-5.812,-7.938 -11.004,-11.133 -16.192,-14.333c0,0 -0.567,1.733 -1.171,-3.029c-5.783,-7.958 -10.962,-11.158 -16.146,-14.354c0,0 -0.621,1.762 -1.204,-3.021c-5.767,-7.983 -10.946,-11.179 -16.125,-14.375c0,0 -0.621,1.762 -1.212,-3.021c-5.775,-7.979 -10.958,-11.175 -16.142,-14.375c0,0 -0.571,1.737 -1.188,-3.025c-5.808,-7.958 -10.996,-11.158 -16.188,-14.358c0,0 -0.492,1.692 -1.15,-3.033c-5.854,-7.929 -11.058,-11.133 -16.258,-14.342c0,0 -0.421,1.671 -1.104,-3.021c-5.896,-7.904 -11.108,-11.121 -16.325,-14.333c0,0 -0.417,1.721 -1.092,-2.971c-5.913,-7.912 -11.142,-11.137 -16.375,-14.358c0,0 -0.4,1.788 -1.054,-2.904c-5.879,-7.946 -11.104,-11.2 -16.329,-14.454c0,0 -0.4,1.808 -1.046,-2.883c-5.871,-7.954 -11.096,-11.217 -16.321,-14.479c0,0 -0.396,1.817 -1.038,-2.879c-5.867,-7.958 -11.092,-11.225 -16.317,-14.487c0,0 -0.396,1.825 -0.996,-2.871c-5.754,-8.025 -10.908,-11.354 -16.067,-14.683c0,0 -0.425,1.75 -1.092,-2.938c-5.854,-7.942 -11.046,-11.196 -16.233,-14.45c0,0 -0.429,1.729 -1.104,-2.954c-5.862,-7.917 -11.054,-11.154 -16.242,-14.396c0,0 -0.429,1.7 -1.112,-2.979c-5.875,-7.904 -11.067,-11.125 -16.258,-14.35c0,0 -0.433,1.679 -1.121,-3.004c-5.888,-7.887 -11.083,-11.1 -16.279,-14.308c0,0 -0.425,1.663 -1.113,-3.021c-5.879,-7.888 -11.075,-11.092 -16.271,-14.3c0,0 -0.471,1.683 -1.129,-3.021c-5.85,-7.904 -11.042,-11.104 -16.233,-14.304c0,0 -0.546,1.729 -1.167,-3.013c-5.804,-7.929 -10.988,-11.121 -16.171,-14.308c0,0 -0.704,1.829 -1.258,-2.987c-5.725,-7.988 -10.896,-11.154 -16.067,-14.321c0,0 -0.967,2.013 -1.404,-2.938c-5.6,-8.087 -10.758,-11.225 -15.921,-14.363c0,0 -1.283,2.233 -1.592,-2.871c-5.458,-8.217 -10.613,-11.333 -15.767,-14.45c0,0 -1.45,2.358 -1.688,-2.829c-5.392,-8.288 -10.546,-11.392 -15.7,-14.496c0,0 -1.471,2.358 -1.7,-2.833c-5.383,-8.3 -10.538,-11.404 -15.692,-14.513c0,0 -1.408,2.3 -1.667,-2.854c-5.412,-8.271 -10.571,-11.392 -15.725,-14.508c0,0 -1.283,2.204 -1.596,-2.892c-5.471,-8.225 -10.629,-11.354 -15.788,-14.487c0,0 -1.142,2.1 -1.517,-2.925c-5.542,-8.179 -10.704,-11.325 -15.867,-14.475c0,0 -0.917,1.942 -1.392,-2.971c-5.642,-8.087 -10.808,-11.258 -15.975,-14.433c0,0 -0.767,1.854 -1.296,-2.992c-5.696,-8.038 -10.858,-11.225 -16.025,-14.412c0,0 -0.775,1.863 -1.3,-2.988c-5.683,-8.042 -10.842,-11.233 -16,-14.425c0,0 -0.788,1.875 -1.304,-2.983c-5.658,-8.058 -10.804,-11.258 -15.95,-14.458c0,0 -0.9,1.958 -1.392,-2.946c-5.654,-8.079 -10.821,-11.254 -15.983,-14.429c0,0 -0.829,1.908 -1.358,-2.962c-5.7,-8.042 -10.871,-11.217 -16.046,-14.387c0,0 -0.746,1.854 -1.313,-2.979c-5.754,-8 -10.942,-11.171 -16.129,-14.337c0,0 -0.633,1.775 -1.238,-3.004c-5.804,-7.958 -11.004,-11.133 -16.2,-14.308c0,0 -0.546,1.725 -1.175,-3.025c-5.825,-7.938 -11.021,-11.125 -16.217,-14.312c0,0 -0.525,1.708 -1.158,-3.029c-5.829,-7.929 -11.021,-11.121 -16.217,-14.312c0,0 -0.529,1.708 -1.154,-3.033c-5.821,-7.929 -11.017,-11.121 -16.208,-14.312c0,0 -0.562,1.729 -1.171,-3.029c-5.8,-7.942 -10.988,-11.129 -16.179,-14.312c0,0 -0.633,1.771 -1.212,-3.021c-5.767,-7.967 -10.954,-11.142 -16.142,-14.321c0,0 -0.708,1.821 -1.258,-3.008c-5.733,-8 -10.917,-11.167 -16.104,-14.333c0,0 -0.75,1.846 -1.279,-3.004c-5.713,-8.017 -10.896,-11.183 -16.079,-14.346c0,0 -0.775,1.858 -1.292,-3.004c-5.7,-8.029 -10.883,-11.196 -16.067,-14.358c0,0 -0.783,1.867 -1.296,-3c-5.692,-8.033 -10.867,-11.2 -16.05,-14.367c0,0 -0.821,1.892 -1.312,-2.992c-5.667,-8.05 -10.842,-11.212 -16.013,-14.379c0,0 -0.871,1.929 -1.333,-2.979c-5.617,-8.079 -10.771,-11.246 -15.925,-14.417c0,0 -1.113,2.1 -1.479,-2.921c-5.521,-8.167 -10.675,-11.312 -15.829,-14.458c0,0 -1.258,2.217 -1.554,-2.875c-5.425,-8.242 -10.554,-11.388 -15.683,-14.538c0,0 -1.583,2.471 -1.763,-2.775c-5.317,-8.362 -10.458,-11.475 -15.596,-14.587c0,0 -1.6,2.467 -1.788,-2.779c-5.337,-8.35 -10.488,-11.458 -15.642,-14.562c0,0 -1.4,2.304 -1.671,-2.842c-5.433,-8.267 -10.596,-11.388 -15.758,-14.508c0,0 -1.167,2.125 -1.542,-2.908c-5.554,-8.171 -10.733,-11.304 -15.912,-14.438c0,0 -0.9,1.946 -1.379,-2.971c-5.662,-8.075 -10.846,-11.233 -16.029,-14.392c0,0 -0.75,1.842 -1.287,-3c-5.721,-8.017 -10.904,-11.196 -16.083,-14.375c0,0 -0.675,1.8 -1.238,-3.012c-5.742,-8 -10.917,-11.192 -16.092,-14.383c0,0 -0.667,1.796 -1.238,-3.008c-5.742,-8 -10.917,-11.196 -16.088,-14.392c0,0 -0.679,1.804 -1.25,-3c-5.746,-7.996 -10.921,-11.188 -16.092,-14.379c0,0 -0.683,1.812 -1.258,-2.996c-5.754,-7.996 -10.929,-11.188 -16.108,-14.375c0,0 -0.654,1.788 -1.263,-3c-5.817,-7.962 -11.025,-11.133 -16.237,-14.304c0,0 -0.438,1.663 -1.113,-3.033c-5.875,-7.9 -11.079,-11.108 -16.279,-14.312c0,0 -0.417,1.663 -1.092,-3.025c-5.883,-7.9 -11.092,-11.117 -16.296,-14.329c0,0 -0.412,1.675 -1.087,-3.013c-5.883,-7.904 -11.092,-11.121 -16.296,-14.342c0,0 -0.408,1.683 -1.079,-3.004c-5.879,-7.908 -11.088,-11.125 -16.296,-14.346c0,0 -0.408,1.688 -1.075,-3c-5.875,-7.908 -11.083,-11.129 -16.292,-14.35c0,0 -0.404,1.679 -1.071,-3.008c-5.871,-7.908 -11.075,-11.129 -16.279,-14.346c0,0 -0.404,1.667 -1.071,-3.021c-5.867,-7.904 -11.067,-11.121 -16.263,-14.337c0,0 -0.417,1.65 -1.083,-3.042c-5.858,-7.9 -11.05,-11.108 -16.242,-14.317c0,0 -0.5,1.696 -1.133,-3.033c-5.817,-7.929 -11,-11.129 -16.188,-14.329c0,0 -0.6,1.758 -1.192,-3.017c-5.767,-7.963 -10.942,-11.154 -16.117,-14.346c0,0 -0.721,1.837 -1.25,-2.996c-5.671,-8.025 -10.812,-11.221 -15.958,-14.412c0,0 -1.071,2.079 -1.463,-2.913c-5.525,-8.158 -10.654,-11.321 -15.787,-14.483c0,0 -1.371,2.312 -1.638,-2.825c-5.379,-8.287 -10.492,-11.437 -15.608,-14.592c0,0 -1.679,2.55 -1.829,-2.729c-5.262,-8.404 -10.379,-11.537 -15.492,-14.667c0,0 -1.733,2.583 -1.867,-2.712c-5.254,-8.425 -10.371,-11.55 -15.488,-14.679c0,0 -1.629,2.496 -1.817,-2.746c-5.312,-8.371 -10.438,-11.508 -15.562,-14.642c0,0 -1.467,2.371 -1.733,-2.792c-5.404,-8.312 -10.546,-11.463 -15.683,-14.608c0,0 -1.087,2.083 -1.525,-2.892c-5.596,-8.15 -10.75,-11.325 -15.908,-14.496c0,0 -0.775,1.875 -1.337,-2.958c-5.738,-8.021 -10.908,-11.212 -16.083,-14.4c0,0 -0.625,1.783 -1.25,-2.987c-5.808,-7.967 -10.992,-11.163 -16.175,-14.363c0,0 -0.508,1.708 -1.196,-3.004c-5.913,-7.896 -11.142,-11.075 -16.367,-14.25c0,0 -0.425,1.725 -1.113,-2.967c-5.929,-7.9 -11.171,-11.108 -16.408,-14.321c0,0 -0.408,1.8 -1.062,-2.892c-5.888,-7.946 -11.121,-11.2 -16.354,-14.45c0,0 -0.4,1.837 -1.046,-2.858c-5.879,-7.962 -11.113,-11.229 -16.35,-14.496c0,0 -0.396,1.863 -1.033,-2.833c-5.871,-7.971 -11.104,-11.25 -16.337,-14.525c0,0 -0.396,1.871 -1.029,-2.829c-5.862,-7.979 -11.096,-11.263 -16.325,-14.542c0,0 -0.396,1.871 -1.025,-2.825c-5.858,-7.979 -11.083,-11.262 -16.308,-14.546c0,0 -0.396,1.854 -1.021,-2.838c-5.842,-7.975 -11.058,-11.254 -16.275,-14.533c0,0 -0.4,1.808 -1.033,-2.883c-5.846,-7.954 -11.054,-11.212 -16.267,-14.475c0,0 -0.404,1.75 -1.054,-2.942c-5.854,-7.929 -11.058,-11.167 -16.262,-14.404c0,0 -0.413,1.696 -1.071,-2.996c-5.862,-7.904 -11.062,-11.121 -16.267,-14.337c0,0 -0.429,1.662 -1.092,-3.038c-5.863,-7.896 -11.062,-11.092 -16.262,-14.288c0,0 -0.529,1.712 -1.154,-3.029c-5.821,-7.925 -11.017,-11.108 -16.213,-14.292c0,0 -0.596,1.754 -1.192,-3.025c-5.783,-7.954 -10.979,-11.133 -16.171,-14.312c0,0 -0.663,1.792 -1.225,-3.017c-5.75,-7.983 -10.933,-11.158 -16.121,-14.333c0,0 -0.737,1.842 -1.267,-3.004c-5.708,-8.017 -10.883,-11.188 -16.062,-14.358c0,0 -0.821,1.896 -1.321,-2.988c-5.671,-8.05 -10.846,-11.212 -16.017,-14.379c0,0 -0.85,1.921 -1.292,-2.975c-5.529,-8.133 -10.621,-11.367 -15.712,-14.6c0,0 -1.358,2.308 -1.625,-2.812c-5.338,-8.321 -10.413,-11.521 -15.483,-14.721c0,0 -1.846,2.696 -1.958,-2.637c-5.212,-8.471 -10.317,-11.608 -15.421,-14.742c0,0 -1.733,2.604 -1.892,-2.675c-5.267,-8.417 -10.375,-11.554 -15.483,-14.692c0,0 -1.671,2.55 -1.887,-2.696c-5.375,-8.346 -10.533,-11.446 -15.688,-14.546c0,0 -1.25,2.204 -1.642,-2.846c-5.6,-8.15 -10.8,-11.246 -16.004,-14.346c0,0 -0.804,1.871 -1.383,-2.988c-5.833,-8 -11.088,-11.137 -16.338,-14.275c0,0 -0.408,1.758 -1.1,-2.921c-5.954,-7.908 -11.213,-11.142 -16.471,-14.371c0,0 -0.375,1.883 -1.012,-2.808c-5.883,-7.979 -11.125,-11.267 -16.367,-14.554c0,0 -0.371,1.904 -1.004,-2.788c-5.875,-7.992 -11.121,-11.287 -16.367,-14.583c0,0 -0.371,1.925 -0.983,-2.767c-5.838,-8.017 -11.062,-11.337 -16.288,-14.663c0,0 -0.379,1.917 -1.004,-2.779c-5.85,-8.004 -11.079,-11.312 -16.304,-14.625c0,0 -0.383,1.904 -1.008,-2.792c-5.85,-7.996 -11.079,-11.3 -16.304,-14.6c0,0 -0.483,2.263 -1.3,-2.913c-6.583,-9.392 -12.35,-13.604 -18.112,-17.817c-96.358,-92.45 -192.717,-184.9 -291.438,-287.375c-7.796,-13.904 -13.233,-17.783 -18.667,-21.667c0,0 -0.45,1.696 -1.171,-2.992c-5.954,-7.979 -11.192,-11.275 -16.429,-14.567c0,0 -0.4,1.908 -1.025,-2.792c-5.862,-7.992 -11.1,-11.279 -16.333,-14.567c0,0 -0.4,1.908 -1.029,-2.792c-5.867,-7.988 -11.104,-11.271 -16.346,-14.558c0,0 -0.396,1.904 -1.029,-2.792c-5.875,-7.979 -11.117,-11.267 -16.358,-14.55c0,0 -0.396,1.908 -1.025,-2.792c-5.875,-7.983 -11.121,-11.267 -16.362,-14.55c0,0 -0.396,1.913 -1.025,-2.787c-5.875,-7.983 -11.125,-11.267 -16.371,-14.55c0,0 -0.392,1.921 -1.017,-2.775c-5.875,-7.987 -11.125,-11.275 -16.371,-14.567c0,0 -0.387,1.929 -1.012,-2.771c-5.871,-7.996 -11.117,-11.287 -16.362,-14.583c0,0 -0.383,1.929 -1.008,-2.771c-5.867,-7.996 -11.108,-11.292 -16.354,-14.588c0,0 -0.383,1.925 -1.008,-2.775c-5.863,-7.992 -11.104,-11.287 -16.346,-14.583c0,0 -0.383,1.912 -1.008,-2.783c-5.862,-7.992 -11.104,-11.283 -16.342,-14.575c0,0 -0.388,1.9 -1.012,-2.796c-5.863,-7.983 -11.1,-11.271 -16.338,-14.558c0,0 -0.388,1.883 -1.017,-2.812c-5.867,-7.979 -11.104,-11.258 -16.342,-14.542c0,0 -0.388,1.875 -1.017,-2.825c-5.867,-7.975 -11.1,-11.254 -16.338,-14.529c0,0 -0.392,1.854 -1.021,-2.842c-5.862,-7.971 -11.1,-11.246 -16.333,-14.517c0,0 -0.392,1.846 -1.025,-2.85c-5.867,-7.967 -11.104,-11.237 -16.338,-14.508c0,0 -0.392,1.85 -1.029,-2.85c-5.875,-7.971 -11.112,-11.242 -16.35,-14.513c0,0 -0.392,1.871 -1.025,-2.829c-5.883,-7.979 -11.129,-11.254 -16.375,-14.533c0,0 -1.383,2.562 -2.071,-3.117c-11.146,-14.129 -21.604,-22.575 -32.062,-31.025c0,0 -0.617,1.737 -1.404,-3.038c-6.258,-8.254 -11.725,-11.729 -17.196,-15.208c0,0 -0.317,2.787 -0.642,-2.062c-5.787,-8.338 -11.246,-11.825 -16.708,-15.313c0,0 -0.317,2.792 -0.642,-2.058c-5.779,-8.342 -11.229,-11.837 -16.683,-15.329c0,0 -0.317,2.783 -0.646,-2.067c-5.779,-8.342 -11.225,-11.833 -16.671,-15.325c0,0 -0.321,2.775 -0.65,-2.079c-5.779,-8.338 -11.225,-11.825 -16.671,-15.313c0,0 -0.325,2.767 -0.654,-2.088c-5.775,-8.337 -11.221,-11.821 -16.667,-15.304c0,0 -0.329,2.763 -0.654,-2.096c-5.771,-8.342 -11.217,-11.821 -16.658,-15.304c0,0 -0.108,1.921 -0.821,-2.829c-6.154,-6.692 -11.596,-8.633 -22.179,-13.413c-163.946,-162.692 -322.754,-322.546 -480.975,-487.554c-4.904,-9.046 -10.396,-12.942 -16.121,-15.983c-0.233,0.854 1.483,0.433 -0.083,-4.058c-6.821,-7.758 -12.071,-11.029 -17.525,-13.35c-0.204,0.95 1.688,0.504 0.113,-3.983c-6.85,-7.729 -12.125,-10.971 -17.6,-13.258c-0.2,0.95 1.696,0.525 0.125,-3.979c-6.863,-7.742 -12.154,-10.983 -17.633,-13.254c-0.192,0.971 1.742,0.563 0.183,-3.954c-6.833,-7.796 -12.108,-11.075 -17.575,-13.379c-0.192,0.975 1.754,0.571 0.188,-3.946c-6.846,-7.8 -12.129,-11.083 -17.596,-13.379c-0.188,0.988 1.783,0.592 0.208,-3.929c-6.854,-7.817 -12.133,-11.117 -17.6,-13.417c-0.188,1 1.804,0.604 0.225,-3.917c-6.863,-7.825 -12.142,-11.133 -17.608,-13.429c-0.188,1.008 1.825,0.617 0.238,-3.904c-6.875,-7.833 -12.158,-11.146 -17.629,-13.438c-0.183,1.017 1.85,0.629 0.254,-3.892c-6.887,-7.837 -12.175,-11.154 -17.65,-13.446c-0.179,1.025 1.867,0.642 0.258,-3.883c-6.908,-7.837 -12.208,-11.15 -17.688,-13.425c-0.179,1.037 1.892,0.658 0.275,-3.871c-6.929,-7.833 -12.242,-11.142 -17.729,-13.408c-0.171,1.042 1.912,0.675 0.304,-3.858c-6.917,-7.858 -12.225,-11.188 -17.7,-13.462c-0.171,1.05 1.921,0.688 0.317,-3.85c-6.913,-7.875 -12.221,-11.208 -17.7,-13.492c-0.171,1.05 1.925,0.692 0.325,-3.85c-6.908,-7.879 -12.217,-11.217 -17.692,-13.5c-0.167,1.054 1.937,0.696 0.367,-3.85c-6.821,-7.95 -12.067,-11.35 -17.496,-13.717c-0.179,1.037 1.887,0.65 0.3,-3.883c-6.854,-7.887 -12.121,-11.246 -17.567,-13.617c-0.179,0.988 1.783,0.563 -0.071,-4.258c-7.825,-6.992 -13.796,-9.167 -22.821,-16.271c-18.579,-25.438 -32.567,-47.346 -49.854,-66.242c-240.658,-263.087 -457.258,-544.292 -642.583,-849.246c-463.367,-762.479 -720.55,-1589.938 -780.658,-2487.304c-1.338,-130.613 -3.875,-253.113 -4.704,-383.283c1.304,-65.512 0.904,-123.35 2.021,-188.692c28.642,-242.208 44.213,-478.946 85.092,-711.233c114.567,-651 350.262,-1258.046 695.442,-1828.479c64.329,-98.817 124.958,-193.15 185.592,-287.483c0,0 3.275,-2.075 6.517,-6.6c6.971,-8.446 9.2,-13.087 9.925,-18.45c0,0 -2.267,-0.796 2.621,-2.963c14.321,-17.067 23.75,-31.967 33.179,-46.863c-3.042,-2.017 -6.083,-4.029 -0.492,-6.754c22.675,-21.325 36.717,-41.938 49.825,-63.679c-0.933,-1.125 1.7,0.146 5.821,-2.871c11.15,-14.458 18.179,-25.896 25.208,-37.338c0,0 -1.404,-0.096 2.946,-1.292c9.317,-8.85 14.283,-16.508 20.05,-24.746c0.796,-0.583 1.846,-2.254 5.225,-4.896c7.442,-6.95 9.912,-12.033 9.633,-18.158c-1.158,-0.267 -0.637,2.054 3.658,-0.113c7.079,-7.837 9.863,-13.512 11.746,-19.275c-0.9,-0.087 -0.438,1.662 3.492,0.125c8.575,-8.529 13.221,-15.521 17.871,-22.508c0,0 5.021,-2.121 8.212,-6.879c6.717,-7.896 9.158,-11.725 10.512,-16.246c0,0 -7.733,-1.908 -0.188,-3.879c10.292,-7.375 13.042,-12.779 15.787,-18.179c0,0 -2.504,-0.188 2.642,-1.746c20.538,-21.412 35.933,-41.267 51.325,-61.125c0,0 0.65,-1.283 4.487,-4.408c8.254,-6.992 11.033,-11.804 12.183,-17.558c0,0 -2.604,-0.425 2.529,-1.871c13.45,-12.742 21.767,-24.042 30.083,-35.337c0,0 -2.462,-0.312 2.592,-1.446c13.117,-12.45 21.179,-23.767 29.242,-35.088c0,0 -1.842,-0.162 2.604,-0.925c9.908,-8.171 15.375,-15.583 20.842,-22.992c0,0 2.975,-1.838 6.163,-4.979c6.612,-5.688 8.896,-9.013 10.038,-13.121c0,0 2.046,-1.313 6.55,-5.421c12.208,-14.583 19.908,-25.058 27.608,-35.533c0,0 -2.812,-0.85 1.837,-1.571c8.05,-6.262 11.446,-11.804 14.846,-17.346c0,0 -3.475,-0.442 1.446,-0.646c8.567,-5.692 12.213,-11.175 15.863,-16.662c0,0 -3.408,-0.45 1.479,-0.729c8.454,-5.812 12.021,-11.35 15.583,-16.883c0,0 -3.337,-0.421 1.525,-0.708c8.508,-5.738 12.158,-11.188 15.804,-16.638c0,0 -3.304,-0.417 1.554,-0.725c8.5,-5.754 12.142,-11.2 15.779,-16.642c0,0 -3.279,-0.417 1.571,-0.738c8.488,-5.762 12.121,-11.204 15.758,-16.642c0,0 -3.254,-0.417 1.583,-0.767c8.429,-5.825 12.025,-11.296 15.617,-16.762c0,0 -3.25,-0.396 1.592,-0.725c8.475,-5.771 12.108,-11.213 15.738,-16.654c0,0 -3.238,-0.392 1.608,-0.725c8.479,-5.775 12.112,-11.221 15.746,-16.662c0,0 -3.246,-0.383 1.608,-0.713c8.488,-5.775 12.121,-11.225 15.754,-16.675c0,0 -3.275,-0.379 1.612,-0.658c8.6,-5.7 12.312,-11.121 16.025,-16.542c0,0 -3.413,-0.387 1.512,-0.625c8.575,-5.746 12.225,-11.25 15.875,-16.754c0,0 -3.442,-0.383 1.492,-0.604c8.583,-5.729 12.237,-11.238 15.887,-16.746c0,0 -3.45,-0.387 1.492,-0.588c8.6,-5.712 12.258,-11.221 15.917,-16.729c0,0 -3.454,-0.383 1.496,-0.575c8.608,-5.692 12.267,-11.2 15.925,-16.704c0,0 -3.442,-0.392 1.517,-0.583c8.596,-5.7 12.237,-11.213 15.883,-16.721c0,0 -3.467,-0.387 1.471,-0.433c8.8,-5.279 12.667,-10.517 16.529,-15.754c0,0 -3.133,-0.446 1.558,-0.529c8.754,-4.608 12.812,-9.133 16.875,-13.658c0,0 -6.304,0.75 0.958,-1.617c16.013,-11.125 24.762,-19.883 33.517,-28.638c0,0 2.488,-1.162 7.183,-4.75c10.408,-10.429 16.117,-17.267 21.829,-24.108c0,0 -2.183,-0.642 2.775,-1.113c9.475,-6 13.992,-11.521 18.508,-17.046c4.267,1.146 7.7,-0.067 15.771,-9.267c9.921,-11.513 14.379,-17.392 18.833,-23.275c0,0 -3.396,0.221 1.65,0.217c11.35,-7 17.654,-14 29.508,-23.075c155.658,-117.758 305.767,-233.438 455.879,-349.121c0,0 0.571,-0.329 0.9,-0.367m5000.983,6689.817c5.238,0.533 10.017,-0.708 25.712,-8.342c41.017,-43.158 82.037,-86.317 131.371,-132.2c2.992,-4.842 5.987,-9.683 17.371,-17.342c3.029,-4.879 6.054,-9.754 17.433,-17.396c3.008,-4.867 6.017,-9.729 17.329,-17.346c2.983,-4.85 5.971,-9.696 19.379,-17.758c14.275,-15.963 28.554,-31.925 52.629,-52.917c8,-15.963 15.996,-31.925 35.35,-50.858c55.496,-69.35 116.958,-134.825 165.058,-208.971c68.2,-105.129 126.554,-216.646 199.921,-330.3c174.079,-319.808 282.154,-661.196 323.45,-1022.317c73.196,-640.083 -31.538,-1247.642 -348.85,-1826.113c-21.687,-36.95 -43.375,-73.896 -70.058,-121.758c-44.604,-66.554 -89.208,-133.108 -139.462,-209.546c-33.646,-42.096 -67.296,-84.192 -103.967,-132.85c-2.708,-4.121 -6.242,-7.338 -13.621,-16.621c-3.358,-3.846 -7.217,-7.108 -17.096,-20.204c-23.729,-25.183 -47.458,-50.367 -78.425,-71.562c0,0 7.254,-3.779 4.133,-11.9c-4.362,-3.712 -8.725,-7.429 -19.4,-6.662c0,0 5.867,-5.05 2.367,-12.071c-3.083,-4.421 -7.108,-7.683 -13.158,-10.646c0,0 -0.929,-1.029 -4.133,-7.433c-2.842,-4.017 -6.533,-6.967 -12.325,-10.896c0,0 -2.129,-1.092 -5.267,-7.137c-2.767,-3.788 -6.346,-6.504 -12.004,-10.296c0,0 -2.242,-1.092 -5.371,-7.117c-2.763,-3.771 -6.333,-6.471 -12.325,-10.317c0,0 -2.658,-0.658 -9.45,-5.8c-5.587,-1.025 -11.029,-2.562 -20.846,-15.233c-30.888,-33.517 -58.633,-70.738 -93.121,-100.017c-948.421,-805.104 -2009.45,-988.133 -3168.671,-547.621c-535.492,203.492 -967.475,555.642 -1307.183,1034.396c-23.646,35.375 -47.287,70.75 -79.483,114.15c-227.683,357.6 -374.854,745.158 -445.633,1163.712c-107.217,634.038 127.954,1152.967 678.754,1431.467c415.854,210.271 836.383,199.721 1231.346,-61.063c413.992,-273.35 619.858,-674.113 678.446,-1162.392c-55.933,-13.304 -106.2,-26.038 -156.817,-37.167c-291.246,-64.037 -582.571,-127.696 -876.525,-199.833c-4.858,-2.983 -9.717,-5.963 -17.337,-17.371c-4.896,-3.012 -9.796,-6.029 -17.333,-17.387c-4.792,-3.058 -9.583,-6.117 -18.704,-21.271c-55.329,-95.825 -64.521,-193.704 -3.283,-300.983c50.713,-82.887 132.283,-113.446 221.225,-136.392c431.817,-111.412 863.108,-224.863 1307.342,-340.592c469.979,-120.796 940.25,-240.483 1409.658,-363.462c80.429,-21.071 147.613,-12.883 207.517,45.7c59.138,57.833 57.608,122.454 37.575,198.85c-191.946,732.033 -380.854,1464.863 -570.5,2197.496c-49.225,190.171 -95.538,381.137 -147.812,570.462c-34.725,125.754 -140.742,205.725 -258.762,205.696c-118.587,-0.029 -217.708,-74.758 -254.988,-196.983c-25.821,-84.658 -52.108,-169.779 -68.825,-256.496c-42.95,-222.825 -80.687,-446.658 -121.571,-676.058c-297.413,26.962 -559.325,122.883 -796.212,288.05c-468.154,326.417 -673.55,830.779 -539.025,1358.271c160.408,628.987 686.167,984.463 1257.396,967.358c458.246,-13.721 885.817,-154.717 1284.158,-381.008c63.95,-36.329 121.829,-83.346 194.192,-126.304c13.454,-11.283 26.912,-22.567 51.758,-35.167c13.617,-11.15 27.233,-22.304 49.175,-36.188c2.975,-4.854 5.954,-9.713 20.712,-15.758c19.225,-16.988 38.454,-33.979 69.45,-52.642c25.033,-22.592 50.071,-45.183 83.483,-70.529c2.983,-4.892 5.967,-9.779 17.35,-17.333c3.021,-4.854 6.038,-9.708 16.508,-15.683l-0.004,0Z" style="fill:#000100;fill-rule:nonzero;"/><defs><linearGradient id="_Linear1" x1="0" y1="0" x2="1" y2="0" gradientUnits="userSpaceOnUse" gradientTransform="matrix(0,17777.777779,-17777.777779,0,8888.888888,0)"><stop offset="0" style="stop-color:#d6ff4e;stop-opacity:1"/><stop offset="1" style="stop-color:#ecffa7;stop-opacity:1"/></linearGradient></defs></svg>